<svg xmlns="http://www.w3.org/2000/svg" version="1.1" viewBox="0 0 1584 1216" width="1280" height="1280">
<path transform="translate(1323,44)" d="m0 0 5 1v8l-6 11-5 6-3 6-9 9-3 7-21 21-2 6-30 30-2 6-34 34-2 6-33 33-3 7-37 37-3 7-33 33-3 7-37 37-3 7-38 38-2 6-38 38-2 6-37 37-3 7-37 37-3 7-3 4 4 2 4 6 9 19 10 19 4 8 3 10 4 12 4 13 2 6 2 10 2 6v17l3 1 1 3v76l-1 5h-2l-1 19-1 5h-2l-1 13-1 3h-2l-1 13-7 14-3 9-4 9-3 10-5 9-5 7-6 12-6 7-2 5-4 5-4 4h-2l-2 7-7 8-7 6-5 6-8 7-14 14-5 2-10 9-6 3-9 6-32 16-9 4-6 2-13 4-1 1-19 2v2l-12 1h-58l-10-1-2-2-17-2-8-3-21-7h-7l-2 3h-2l-2 7-4 5h-2l-2 7-4 5-4 4h-2l-2 7-4 5-4 4h-2l-2 7-4 5-4 4h-2l-2 7-4 5-4 4h-2l-2 7-4 5-4 4h-2l-2 7-4 5h-2l-2 7-4 5-4 4h-2l-2 7-4 5-4 4h-2l-2 7-4 5-4 4h-2l-2 7-4 5-4 4h-2l-2 7-4 5-5 5-3 6-17 17-5 2-6 5-11 5-8 2-1 1-16 1-15-1-2-2-8-1-4-3-9-2-7-6-6-3-15-15-3-6-6-8-4-8-3-10-1-1-1-16-3-4 1-6 2-2 1-19 6-12 8-15 5-7 3-5 8-9h2l2-4 25-25 2-5 7-7 2-3h2l2-4 8-8h2l2-4h2l2-4 13-13 2-5 7-7 7-8 24-24 2-5 7-7 2-3h2l2-4 21-21 1-3-7-8-3-6-6-8-8-16-4-9-3-8-5-12-8-24-2-11-2-4-1-15-3-9v-17h-30l-7-2v-2h-42l-2-3-34-1-9-1-1-2-43-2v-2l-55-1-1-1v-6l1-1 27-1 5-3 51-1 1-3 51-1 1-3 51-1 1-3 34-1 1-28 3-5 1-15 3-6 1-10 3-7 1-9 3-7 3-9 4-8 5-11 3-9 6-10 3-4 6-12 6-7 3-6 4-5h2l5-10 7-7 2-3h2l2-4 16-16h2l2-4h2v-2l10-7 27-18 10-6 19-10 9-2 3-2 9-2 3-2 13-2 4-2 14-1 4-3h62l1 3 18 1 6 3 12 2 3 2 9 2 9 5 1 1 10 2 16 9 9 6 10 7 5 3 9 8 7 3v2l4 2 5 6 2 1 1-6 7-8 11-11 8-7 5-2 7-7h2l2-4 8-7 26-26 5-6 8-7 23-23 5-6 7-6 5-6 7-6 20-20 6-7 7-6 5-6 7-6 5-6 7-6 5-6 8-7 58-58 5-6 7-6 12-12 6-7 6-5 6-7 6-5 14-14 5-2 11-11 6-5 6-7 7-6 5-6 6-5 2-3h2l2-4 6-5 6-7 6-5 2-3h2l2-4h2l2-4h2l2-4 12-12 8-7 5-4 6-4 10-8zm-658 524-3 3-10 2-19 10-7 4-8 8-7 3-7 7-2 6-3 3v2l-4 2v2h-2l-4 9-12 24-1 1-1 10h-2l-1 2-1 14-3 1v69l1 2h2l1 10 3 7 2 7 2 5 2 6 4 8 6 8 4 7 4 5 3 5 9 10 3 3h2v2l9 6 10 7 14 7 1 1 10 1v2l2 1 14 1 1 3h27l4-1 1-2 12-1 4-3 10-2 17-9 10-9 6-3 6-5 6-7 2-5 4-4v-2h2l4-6 7-14 5-9 4-10 3-9 2-12 3-8v-57l-3-4-2-14-2-3-2-9-2-4-1-7h-4l-24 24-2 6-14 14-1 7h-2l-1 2-1 9-3 2-1 14-3 2-1 9-3 4-2 5-19 19-11 5-5 3-4 1h-26l-2-3-9-1-5-4-2-3-6-2-15-15-9-18-1-11-3-4v-8l3-5 1-10 3-5 2-5 8-9 8-7 16-8 13-2 2-2 11-1 5-3 9-1 6-5 6-7 7-6 5-6 6-5 7-8 16-16v-3l-5-4-23-11-1-1-10-1-1-3z" fill="#F1444E"/>
<path transform="translate(1291,139)" d="m0 0 5 2 7 8 7 7 6 5 4 4v2h2v2h2l5 5 8 5 3 4 3 5 1 3 4 2v2l4 2 6 7 17 17 3 6 10 12 3 5 9 11 3 5 7 11 6 9 7 10 6 9 7 12 9 19 10 19 4 8v3l-6 4-7 4-9 6-11 7-13 8-11 7-3 3-6 3-9 6-14 8-3 3-6 3-6 5-6 3-9 6-14 8-3 3-6 3-6 5-8 4-9 6-13 8-5 3-9 7-6 3-9 6-14 8-3 3-6 3-6 5-6 3-9 6-11 6-6 5-6 3-6 5-6 3-9 6-16 8-4-1-2-7-2-3-3-9-5-12-3-9-8-16-10-21-6-10-5-7-6-12-6-8-3-5-9-11-3-5-9-10-4-4 1-6 3-1 2-4 6-5 6-7h2l2-4 9-9 2-5 8-8 7-8 7-7 2-5 11-11 2-3h2l2-4 9-9 2-5 8-8 7-8 7-7 2-5 11-11 2-3h2l2-4 9-9 2-5 11-11 2-3h2l2-4 9-9 2-5 7-7 7-8 8-8 2-5 11-11 2-3h2l2-4 9-9 2-5 5-6h2l2-4h2l1-3z" fill="#F57D82"/>
<path transform="translate(1484,423)" d="m0 0 3 1 2 10 3 7 2 6 4 13 2 6 1 9 2 2 2 14 2 2 2 18 2 2 2 18 2 1 1 6 1 17 2 1 1 4 1 23 2 1 1 3 1 36 3 2v82l-12 3-7 2-9 2-20 4-1 1-19 3-7 2-9 2-1 1-16 2-4 2-15 3-1 1-17 2-3 2-13 2-3 2-16 2-4 2-17 2-7 3-9 1-3 2-17 2-3 2-13 2-3 2-17 2-3 2-13 2-3 2-17 2-3 2-16 2-4 2-15 3-1 1-14 1-1-1-1-90-3-3-1-32-3-4v-25l6-5 6-3 9-6 12-7 27-18 17-10 27-18 17-10 27-18 17-10 27-18 17-10 12-8 20-12 27-18 17-10 11-7 9-6 11-9z" fill="#F1444E"/>
<path transform="translate(1515,780)" d="m0 0h9v36l-1 4-2 1-1 27-1 4-2 1-1 23-1 4-2 1-1 19-1 4-2 1-1 19-1 4-2 1-1 15-1 4h-2l-1 16-1 4h-2l-1 15-2 1-53 1-3 3h-202v3l-5 1h-86l-1-2 3-5 1-14 3-6 1-14 3-6 1-18 3-6 1-18 3-6 1-23 3-4 1-13 1-1 11-1 5-3 14-2 3-2 17-2 2-2 14-2 4-2 16-2 2-2 14-2 4-2 16-2 2-2 14-2 5-2 15-2 2-2 14-2 6-2 14-2 2-2 14-2 6-2 14-2 3-2 17-2 2-2 14-2 5-2 15-2 3-2 13-2 6-2 14-2 5-2 11-2z" fill="#F1444E"/>
<path transform="translate(817,8)" d="m0 0h110l1 1v9l-2 6-1 1-1 17-3 3-1 17-3 3-1 17-1 2h-2l-1 13-1 3-2 1-1 17-3 3-1 17-3 3-1 16-1 3-2 1-1 16-1 3-2 1-1 17-3 3-1 12-1 3-2 1-1 17-3 3-1 16-3 5-2 6-10-1-7-3-15-4-28-7-20-4-18-2-7-2-97-1-2-6-2-7-1-1-1-14-3-6-2-17-2-4-2-16-2-4-2-16-2-4-1-15-3-9-2-16-2-4-1-13-3-6-1-16-3-4v-12l5-6 11-1 6-3 9-2 2-2 11-1 6-3 9-2 3-2 13-1 5-2 1-1 11-1 7-3 16-1 5-2 1-1 23-1 1-3 34-1z" fill="#F99B9F"/>
<path transform="translate(1453,1052)" d="m0 0h22l1 1-1 10-3 9-3 7-2 12-3 9-3 7-3 10-24 72-7 22-3 5h-348l12-35 7-17 14-43 6-18 3-12 10-30 1-1 110-1 8-1 2-2 195-1 7-1z" fill="#F1444E"/>
<path transform="translate(989,16)" d="m0 0h21l3 3 16 1 3 1v2l13 1 7 3 12 2 3 2 9 2 4 2 8 1 7 3 9 2 3 2 8 2 10 5 1 1 10 2 2 2 9 2 17 8 10 6 9 2 26 13 7 4 1 4-2 5-86 86-5 6-6 5-3 7-118 118-2 6-1 1h-8l-3-2v-2h-2l-2-3-6-2-5-5-6-5-5-2-7-6-5-2-7-6-8-4-6-2-1-3 3-9 1-2 1-10 3-5 1-11 3-5 1-11 3-5 1-11 3-5 1-11 3-5 1-11 3-5 1-11 3-5 1-11 3-6 1-10 3-6 2-12 2-4 2-12 2-5 2-11 2-4 2-12 2-4 2-12 2-4 1-10 3-6 1-16z" fill="#F57D82"/>
<path transform="translate(577,71)" d="m0 0 2 1 1 3 1 16 3 5 1 10 3 7 1 9 3 6 2 8 2 6 2 10 2 6 2 10 2 5 1 9 3 7 1 9 3 7 2 7 2 6 2 10 2 6v12l-7 2-13 2-1 1-19 3-7 2-9 2-6 2-10 2-6 2-7 3-11 3-6 2-7 3-10 3-11 5-9 3-17 8-17 9-23 11-19 10-7 4-4 3-9 5h-4l-4-9-3-6-6-8-6-12-6-8-6-12-6-8-6-12-6-8-8-16-1-5 3-5 7-4 7-5 6-7 8-7 5-4 6-4 7-7 10-7 13-10 15-10 13-10 9-6 17-10 12-8 10-6 18-10 10-6 19-10 23-11 10-5 9-3 11-5z" fill="#FAAFB4"/>
<path transform="translate(275,279)" d="m0 0 6 3 7 9 3 5 5 7 4 7 4 5 4 7 5 5 3 4 4 7 4 5 4 7 4 5 1 5h2l5 6-5 5-8 4-8 8-6 3-10 9-6 5h-4l-1 3-8 7-76 76-1 2h-2l-2 7-8 9-7 6-1 2h-2l-2 7-7 7-1 2h-2l-2 7-4 5-4 4h-2l-2 7-4 5-6 5-2 6-6 7-3 6-5 6-2 5-5 9-6 9-6 11-5 7-6 12-9 17-6 9-8 16-8 20-15 30-3 9-5 11-3 9-5 11-6 20-2 3-2 9-2 3-2 9-10 30-2 10-2 6-4 16-1 12-6 7h-2v-28l2-1 3-22 2-9 2-15 2-7 2-14 2-7 2-12 5-18 7-30 2-6 2-10 4-16 13-38 14-43 6-13 4-12 4-8 4-12 8-16 3-10 29-58 8-15 5-7 7-14 6-10 7-10 4-6 6-12 6-8 6-9 3-5 9-11 3-5 7-9 3-6 9-10 3-6 5-5 3-4h2l5-10 7-7 7-8 8-8 2-5 7-7 7-8z" fill="#FEC2C6"/>
<path transform="translate(349,784)" d="m0 0h46l1 2 1 9 2 2 2 13 2 2 1 4v7h2l2 4v4l-2 1h-23l-7-1-1-2-44-1-7-1-1-2-37-1-10-1-1-3h-41l-10-1-1-2-46-1-2-3-40-1-19-1-2-2-17-1-1-1v-6l1-1 75-1 1-3 55-1 5-3 49-1 6-2 1-1 59-1z" fill="#F14750"/>
<path transform="translate(398,608)" d="m0 0h5v3l-2 2-1 11-3 5-1 21-4 5-2 1h-23l-7-1-1-2-36-1-7-1-1-2-35-1-8-1-1-2-36-1-7-1-1-2-42-1-2-3-38-1-1-1v-6l1-1 42-1 5-2 1-1 47-1 5-3 47-1 1-3 46-1 5-2 1-1 48-1z" fill="#F14851"/>
<path transform="translate(1484,423)" d="m0 0 3 1 2 10 3 7 2 6 4 13 2 6 1 9 2 2 2 14 2 2 2 18 2 2 2 18 2 1 1 6 1 17 2 1 1 4 1 23 2 1 1 3 1 36 3 2v82l-2 1h-7l3-2 2-2-2-5 1-2 1-12-1-37-2-26-1-10-1-14-1-4-3-28-1-5-2-1 1-4-2-16-3-12-1-10-2-3-3-17-4-16-5-18-2-4v-7h-9l-3-2-3-7-1-2-4 2h-7l-9 7-11 7-4 2v2h-3l-1 2-6 2-1 4-3 2-8 2-1 4h-3v2l-9 2-4 4h-2v2l-4 1-7 3-6 7-3-1-1 2-8 4v2l-7 3-7 4h-2v2l-4 3h-3v2l-4 1-4 5h-4l-1 2-2-1v2l-2 2-1 3-10 4-2 4-4 1-2-1v2l-4 1-8 4-5 4-6 3-6 5h-3l-1 3-5 2-8 4-3 3-8 4-3 3-6 3h-2v2l-10 5-3 3-5 2-6 5-8 4-14 9-6 4h-2l-2 4-3 2h-4v3l-3 2-1 5 2 1 3 3-2 7-5-2-2-5v-2l-4 3 6 52 1 28 1 2v61l41-9 14-3 25-5h6l-3 3-13 2-3 2-17 2-3 2-16 2-4 2-15 3-1 1-14 1-1-1-1-90-3-3-1-32-3-4v-25l6-5 6-3 9-6 12-7 27-18 17-10 27-18 17-10 27-18 17-10 27-18 17-10 12-8 20-12 27-18 17-10 11-7 9-6 11-9z" fill="#F58489"/>
<path transform="translate(1368,499)" d="m0 0h2v2l-9 5h-2v2l-6 3h-2v2l-5 3-4 6-3 4h-4l-1 2-2-1v2l-2 2-1 3-10 4-2 4-4 1-2-1v2l-4 1-8 4-5 4-6 3-6 5h-3l-1 3-5 2-8 4-3 3-8 4-3 3-6 3h-2v2l-10 5-3 3-5 2-6 5-8 4-14 9-6 4h-2l-2 4-3 2h-4v3l-3 2-1 5 2 1 3 3-2 7-5-2-2-5v-2l-4 3 6 52 1 28 1 2v61l41-9 14-3 25-5h6l-3 3-13 2-3 2-17 2-3 2-16 2-4 2-15 3-1 1-14 1-1-1-1-90-3-3-1-32-3-4v-25l6-5 6-3 9-6 12-7 27-18 17-10 27-18 17-10 27-18 17-10 27-18z" fill="#F68C90"/>
<path transform="translate(1114,1107)" d="m0 0 1 4-6 18-2 7-2 5-2 7-6 17-8 24-5 12-4 11h344l1-7 4-12 2-3 2-8 2-6h2v-6l5-13 2-8h2v-5l2-1-1 8-3 9-3 7-3 10-4 12-7 22-3 5h-348l12-35 7-17 14-43z" fill="#FEFEFC"/>
<path transform="translate(158,431)" d="m0 0v3l-16 28-13 23-17 33-16 33-12 28-13 33-10 27-12 36-14 48-8 31-12 54-5 34-4 17-2 3v-11l3-15 2-15 2-7 2-14 2-7 2-12 5-18 7-30 2-6 2-10 4-16 13-38 14-43 6-13 4-12 4-8 4-12 8-16 3-10 29-58 8-15 5-7 7-14 6-10 7-10z" fill="#FFFFFD"/>
<path transform="translate(1500,475)" d="m0 0 3 2 2 14 2 2 2 18 2 2 2 18 2 1 1 6 1 17 2 1 1 4 1 23 2 1 1 3 1 36 3 2v82l-2 1h-7l3-2 2-2-2-5 1-2 1-12-1-37-2-26-1-10-1-14-1-4-3-28-1-5-2-1 1-4-2-16-3-12-1-10-2-3-3-17-2-8v-4h2z" fill="#F78F94"/>
<path transform="translate(1507,905)" d="m0 0h1v19l-1 4-2 1-1 15-1 4h-2l-1 16-1 4h-2l-1 15-2 1-53 1-3 3h-201v-1l16-1 99-2 120-2h19l4-19 2-6 3-17 2-8 3-19 1-1z" fill="#F89CA0"/>
<path transform="translate(131,586)" d="m0 0 1 4-3 4-3 6-6 9-6 11-5 7-6 12-9 17-6 9-8 16-8 20-15 30-3 9-5 11-3 9-5 11-6 20-2 3-2 9-2 3-2 9-10 30-2 10-2 6-4 16-1 12-6 7h-2v-28l3-1-1 16 7-25 14-45 9-25 17-44 11-26 19-41 16-31 14-24 8-14z" fill="#FFFFFD"/>
<path transform="translate(644,88)" d="m0 0h1l20 101 9 45v3l18-1h38l31 2 26 3 28 5 32 8 24 8v1h-6l-7-3-15-4-28-7-20-4-18-2-7-2-97-1-2-6-2-7-1-1-1-14-3-6-2-17-2-4-2-16-2-4-2-16-2-4-1-15-3-9-2-16-2-4-1-12z" fill="#FFFFFD"/>
<path transform="translate(1453,1052)" d="m0 0h22l1 1-1 10-3 9-3 7-2 12-3 9-3 7-3 10-8 24-2 2 1-9 4-12h2l1-7 8-27 3-12 3-7 3-13-16 1-90 2-54 1h-74v-1l8-1 2-2 195-1 7-1z" fill="#F89DA1"/>
<path transform="translate(1164,629)" d="m0 0h1l1 9h2l6 52 1 28 1 2v61l41-9 14-3 25-5h6l-3 3-13 2-3 2-17 2-3 2-16 2-4 2-15 3-1 1-14 1-1-1-1-90-3-3-1-32-3-4z" fill="#F89A9E"/>
<path transform="translate(1485,787)" d="m0 0h5l-2 2-38 8-9 3-18 2v2l-9 2-14 2-21 5-1 1-17 3-1 1-14 2-5 2-16 3-24 5-26 6-10 2-1 1-25 5-15 4-23 4h-4v2l-21 4h-6l-1 7h-1v-8l1-1 11-1 5-3 14-2 3-2 17-2 2-2 14-2 4-2 16-2 2-2 14-2 4-2 16-2 2-2 14-2 5-2 15-2 2-2 14-2 6-2 14-2 2-2 14-2 6-2 14-2 3-2 17-2 2-2 14-2 5-2 15-2 3-2 13-2 6-2z" fill="#FEEDEC"/>
<path transform="translate(1202,155)" d="m0 0 2 1-13 13-6 5h-2v2h-2l-1 4-7 6-5 6-8 6-52 52-6 5-1 3h-2v2l-8 6-16 17-13 12-24 24-6 7-20 20-8 7-4 4h-2l-2 4h-2l-2 4h-2l-2 4h-2l-2 4h-2l-2 4h-2l-2 4h-2l-2 4-24 24-3 1v-2l8-7 19-19 5-6 7-6 5-6 7-6 20-20 6-7 7-6 5-6 7-6 5-6 7-6 5-6 8-7 58-58 5-6 7-6 12-12 6-7 6-5 6-7 6-5 14-14 5-2z" fill="#FDEAE9"/>
<path transform="translate(173,796)" d="m0 0h41v1l-29 2-8 2-49 3h-12v3l23 1 36 3v1h-40l-19-1-2-2-17-1-1-1v-6l1-1 75-1z" fill="#F8969B"/>
<path transform="translate(319,1078)" d="m0 0 1 4-5 10-4 14-1 7v25l1 1 1 9 2 5v3h2l3 8 7 11 11 12 11 9 8 5 13 4 8 2 18 1 17-1v-2l12-4 8-5 2 1-7 6-11 5-8 2-1 1-16 1-15-1-2-2-8-1-4-3-9-2-7-6-6-3-15-15-3-6-6-8-4-8-3-10-1-1-1-16-3-4 1-6 2-2 1-19 6-12z" fill="#FEF8F7"/>
<path transform="translate(792,975)" d="m0 0 4 1-16 8-9 4-6 2-13 4-1 1-19 2v2l-12 1h-58l-10-1-2-2-17-2-8-3-21-7h-7l-2 1 2-5 5-1 19 7 28 7 23 3v2l32-1 31-4 19-4 16-5 8-3h3v-2z" fill="#F9A1A5"/>
<path transform="translate(284,407)" d="m0 0 2 1-78 78-1 2h-2l-2 7-8 9-7 6-1 2h-2l-2 7-7 7-1 2h-2l-2 7-4 5-4 4h-2l-2 7-4 5-4 4-2-1 7-10 12-17 8-10 10-13 11-13 8-10 8-8 9-11 42-42 8-7z" fill="#FFFFFD"/>
<path transform="translate(223,816)" d="m0 0h23l111 9 18 2v1h-44l-7-1-1-2-37-1-10-1-1-3h-41l-10-1z" fill="#F99CA1"/>
<path transform="translate(1115,196)" d="m0 0h2l-2 7-118 118-2 6-1 1h-8l-3-2v-2h-2l1-2h9l10-8 26-26 7-8 5-4 7-8 21-21 1-2h2l2-4 12-11 11-12 8-8 4-5 7-6z" fill="#FEEFEE"/>
<path transform="translate(395,631)" d="m0 0h1v19l-4 5-2 1h-23l-7-1-1-2-36-1-7-1-1-2-35-1-8-1-1-3h19l89 8 12 2 1-9z" fill="#F99EA2"/>
<path transform="translate(800,641)" d="m0 0 4 1 2 10h2l5 13 5 22 2 17v19l-2 21-5 20h-2l-2 9-2 2 2-10 2-5 1-9 3-8v-57l-3-4-2-14-2-3-2-9-2-4-1-7-4 2-10 10v-3l9-9z" fill="#F9A8AC"/>
<path transform="translate(1151,965)" d="m0 0 1 4-2 9-1 9-1 2 13-1h75v3l-5 1h-86l-1-2 3-5 1-14z" fill="#FFFFFD"/>
<path transform="translate(1500,475)" d="m0 0 3 2 2 14 2 2 2 18 2 2 2 18 2 1 1 6 1 22 1 4v13l-2-1-2-15-2-1 1-4-2-16-3-12-1-10-2-3-3-17-2-8v-4h2z" fill="#F58489"/>
<path transform="translate(459,594)" d="m0 0 1 2-9 25-3 14h-2v9l-4 20-2 12-2 24-2 2-8 1-34 1v-1h6l1-3 34-1 1-28 3-5 1-15 3-6 1-10 3-7 1-9 3-7 3-9 4-8z" fill="#F89CA1"/>
<path transform="translate(265,724)" d="m0 0h16l59 5 44 4 15 2v1h-42l-2-3-34-1-9-1-1-2-43-2v-2z" fill="#F99DA2"/>
<path transform="translate(944,671)" d="m0 0 3 1 1 3v76l-1 5h-2l-1 19-1 5h-2l-1 13-1 3h-2l-1 2 1-11 2-10 3-13 2-20 1-19v-21l-1-18z" fill="#F99EA2"/>
<path transform="translate(575,654)" d="m0 0h1v7l-1 3h-2l-1 13-1 3-2 1v71h2l2 10 3 7 2 7 2 5v5l-2-1-4-10-2-12h-2l-3-12v-12h-2l-1-8v-33l2-9 1-12 5-18 1-2h2z" fill="#FDEAEA"/>
<path transform="translate(349,784)" d="m0 0h46l1 2 1 9 2 2 1 4v9h-1l-2-9-3-6-1-10-3 1-71 5-15 1h-22v-1l6-2 1-1 59-1z" fill="#F89BA0"/>
<path transform="translate(1386,985)" d="m0 0h54v2l-6 1h-173v-1z" fill="#FFFFFD"/>
<path transform="translate(661,428)" d="m0 0h62l1 3 4 1-14-1-4-1h-37l-9 1-5 2-27 5-22 7-19 8-13 7-9 6-7 4-2-1 10-7 11-7 16-8 5-3 9-2 3-2 9-2 3-2 13-2 4-2 14-1z" fill="#FEF8F6"/>
<path transform="translate(245,712)" d="m0 0h44v1l-34 2-11 2-11 1-3 1 1 1 32 3-1 2-49-1-1-1v-6l1-1 27-1z" fill="#F8999E"/>
<path transform="translate(757,16)" d="m0 0h21v1l-36 6-38 8-34 9-31 9-2-1 4-4 11-1 6-3 9-2 2-2 11-1 6-3 9-2 3-2 13-1 5-2 1-1 11-1 7-3 16-1 5-2z" fill="#FFFFFD"/>
<path transform="translate(1249,1056)" d="m0 0h145v1l-105 2-29 1h-21v-1l8-1z" fill="#FEFCFA"/>
<path transform="translate(1167,282)" d="m0 0v3l-5 6-7 9-4 4h-2l-1 4-6 6-2 4h-2l-2 4h-2l-1 4-5 5-4 5h-2l-2 5-8 7-8 11-9 8-3 5-2-1 3-6 8-8 7-8 7-7 2-5 11-11 2-3h2l2-4 9-9 2-5 8-8 7-8z" fill="#FCC4C6"/>
<path transform="translate(275,279)" d="m0 0v3l-12 13-9 11-11 12-9 11-11 13-6 8-8 10-13 18-4 4 1-5 6-7 3-6 9-10 3-6 5-5 3-4h2l5-10 7-7 7-8 8-8 2-5 7-7 7-8z" fill="#FFFFFD"/>
<path transform="translate(1035,23)" d="m0 0 13 2 4 2 12 2 3 2 9 2 4 2 8 1 7 3 9 2 3 2 8 2 10 5 1 1 10 2 2 2 9 2 17 8 10 6-2 1-11-5-8-4-10-4-14-5-11-4-10-4-25-8-10-2v-2l-7-1-32-8z" fill="#FFFFFD"/>
<path transform="translate(1174,718)" d="m0 0 2 2v61l41-9 14-3 25-5h6l-3 3-13 2-3 2-17 2-3 2-16 2-4 2-21 3h-7l-1-35z" fill="#F79498"/>
<path transform="translate(1515,708)" d="m0 0 4 1-4 2-35 7-1 1-19 3-7 2-9 2-1 1-16 2-4 2-15 3-1 1-15 2-2-2 10-2 5-2 28-6 31-7 10-2 9-2 14-2z" fill="#FCD2D3"/>
<path transform="translate(1453,1052)" d="m0 0h22l1 1-1 10-3 9-3 7-2 12-3 9-3 7-3 10-8 24-2 2 1-9 4-12h2l1-7 8-27 3-12 3-7 3-12 1-2h-23z" fill="#FEECEC"/>
<path transform="translate(488,888)" d="m0 0 1 3-11 11-3 5-7 6-7 8-3 4h-2v3l-5 5-5 6-8 7-3 5-5 4-4 5-5 5-4 5-3 3-7 8h-3l7-7 2-5 7-7 7-8 24-24 2-5 7-7 2-3h2l2-4 21-21z" fill="#FEF5F4"/>
<path transform="translate(556,79)" d="m0 0 3 1-34 16-22 11-23 13-24 14-6 4-2-1 10-7 11-7 19-10 9-6 54-27z" fill="#FFFFFD"/>
<path transform="translate(1257,836)" d="m0 0h8l-1 3-25 5-15 4-23 4h-4v2l-21 4h-6l-1 7h-1v-8l1-1 11-1 5-3 14-2 3-2 17-2 2-2 14-2 4-2 16-2z" fill="#FEEEEE"/>
<path transform="translate(1323,44)" d="m0 0 5 1v8l-6 11-5 6-3 6-7 7v-3l8-11 8-13 3-8-9 3-14 10-10 9-11 9-5 4-5 6-4 2 2-4 12-12 8-7 5-4 6-4 10-8z" fill="#FEF5F4"/>
<path transform="translate(1197,610)" d="m0 0m-2 1h2v2l-6 4h-2l-2 4-3 2h-4v3l-3 2-1 5 2 1 3 3-2 7-5-2-2-5v-2l-5 3-2 2v-11l12-7 10-6z" fill="#F58186"/>
<path transform="translate(1172,700)" d="m0 0h1l2 47v35l16-2-4 3-14 1-1-1z" fill="#FEFDFB"/>
<path transform="translate(245,620)" d="m0 0h32v1l-24 2-9 2-40 3h-17l4-2 2-2 47-1z" fill="#F99FA3"/>
<path transform="translate(1236,583)" d="m0 0 2 1-8 5h-2v2l-5 4-4 5-8 4-12 8-6 1-6 4-20 12-2-1 5-4 6-3 9-6 12-7 27-18z" fill="#F79196"/>
<path transform="translate(1035,320)" d="m0 0 2 1-8 7-7 8-10 10-8 7-4 4h-2l-2 4h-2l-2 4h-2l-2 4h-2l-2 4h-2l-2 4h-2l-2 4h-2l-2 4-24 24-3 1v-2l8-7 19-19 5-6 7-6 5-6 7-6 20-20 6-7 7-6 4-4z" fill="#FAABAF"/>
<path transform="translate(1114,1107)" d="m0 0 1 4-6 18-2 7-2 5-2 7-6 17-8 24-5 12-3 9h-1l1-9 9-25 5-12 14-43z" fill="#FEF0EF"/>
<path transform="translate(17,828)" d="m0 0 1 4-9 30-7 23h-1l1-15 1-8h2l4-20h2l1-7z" fill="#FBB3B8"/>
<path transform="translate(1516,555)" d="m0 0 3 1 1 4 1 23 2 1 1 3v35h-1l-1-19h-2l-2-9-1-8v-22z" fill="#F68C91"/>
<path transform="translate(398,608)" d="m0 0h5v3l-2 2-1 11-3 5-1-3 2-6 1-8-15 2-26 2h-19l4-2 2-2 48-1z" fill="#FAB5B8"/>
<path transform="translate(1215,95)" d="m0 0 1 3-71 71v-3l28-28 1-3 8-7z" fill="#FEF2F1"/>
<path transform="translate(1388,488)" d="m0 0 2 1-8 10-3-1-1 2-8 4v2l-7 3-7 4h-2v2l-4 3h-3v2l-3-1 1-4 3-2h3v-2l5-3h3v-2l8-5h3v-2l6-3h2v-2l6-3h2v-2z" fill="#F58489"/>
<path transform="translate(1519,821)" d="m0 0h1v27l-1 4-2 1-1 23-1 4-2 1-1 19-1 4-3 1 3-29 2-4 3-26 2-18z" fill="#FDEAEA"/>
<path transform="translate(145,628)" d="m0 0h42v1l-26 2-3 1 7 2 18 1v1h-38l-1-1v-6z" fill="#F8979C"/>
<path transform="translate(1042,272)" d="m0 0 1 3-46 46-2 6-1 1h-8l-3-2v-2h-2l1-2h9l10-8 26-26 7-8 5-4z" fill="#FEE1E1"/>
<path transform="translate(676,564)" d="m0 0h31l10 2v2h-52l1-2z" fill="#FDE1E1"/>
<path transform="translate(324,235)" d="m0 0 3 3 10 18 12 19 26 44v3l-7-9-6-12-6-8-6-12-6-8-6-12-6-8-8-16z" fill="#FFFFFD"/>
<path transform="translate(1524,623)" d="m0 0 4 2v82l-2 1h-7l3-2 4-1v-31z" fill="#FEFEFC"/>
<path transform="translate(1271,562)" d="m0 0 2 1-5 5-6 5-8 4-3 3-6 3h-2v2l-10 5-3 3-5 2h-3l4-4h2v-2l9-5 5-5 8-5 6-2z" fill="#F68C91"/>
<path transform="translate(817,8)" d="m0 0h110l1 2h-78l-29 2h-6z" fill="#FFFFFD"/>
<path transform="translate(1507,905)" d="m0 0h1v19l-1 4-2 1-1 15-1 4h-2l-1 16-1 4h-2l-1 2 1-13 3-17 2-8 3-19 1-1z" fill="#FCCECF"/>
<path transform="translate(1129,1060)" d="m0 0h68v1l-53 1-13 1-3 7h-2l-1 8-9 29-1-4 3-12 10-30z" fill="#FEF5F4"/>
<path transform="translate(97,800)" d="m0 0h59v1l-48 3h-7v2l11 1v1h-15l-1-1v-6z" fill="#FFFFFD"/>
<path transform="translate(319,1078)" d="m0 0 1 4-5 10-4 14-1 7v25l1 1v6h-1v-5h-2l-1-10-3-4 1-6 2-2 1-19 6-12z" fill="#F8A0A4"/>
<path transform="translate(640,669)" d="m0 0v3l-3 4-3 5-4 14-1 14 3 18 4 9-1 2-7-13-1-11-3-4v-8l3-5 1-10 3-5 2-5z" fill="#F99EA2"/>
<path transform="translate(660,762)" d="m0 0 5 1 6 3 15 2h13l14-3 3 1-8 4-5 2h-26l-2-4h-9l-6-5z" fill="#FAABAF"/>
<path transform="translate(1092,445)" d="m0 0 5 5 4 5v3h2l5 9 6 12 5 8 8 16 1 7-3-3-16-32-6-10-3-4-6-12z" fill="#FEFAF8"/>
<path transform="translate(473,287)" d="m0 0 3 1-64 32-7 4-3-1 22-12 29-15z" fill="#FFFFFD"/>
<path transform="translate(816,691)" d="m0 0h1l1 11v30l-1 16-4 16h-2l-2 9-2 2 2-10 2-5 1-9 3-8z" fill="#FFFFFD"/>
<path transform="translate(588,122)" d="m0 0 3 3 3 11 2 6 2 10 2 6 2 10 2 5 1 9 3 7v9l-2-4-18-69z" fill="#FFFFFD"/>
<path transform="translate(1286,143)" d="m0 0h2l-2 4-5 5-2 5-5 5-2 3h-2l-1 4-3 1-2 4-9 10h-2l-1 4-5 5-2-1 2-2 2-5 11-11 2-3h2l2-4 9-9 2-5 5-6h2z" fill="#FCC2C4"/>
<path transform="translate(944,671)" d="m0 0 3 1 1 3v76l-1 5h-2l-1 2 2-21v-40z" fill="#FFFFFD"/>
<path transform="translate(400,810)" d="m0 0 3 2 1 4v7h2l2 4v4l-2 1h-23l-7-1-1-3h21l8 2-4-17z" fill="#FDE1E1"/>
<path transform="translate(749,847)" d="m0 0 2 1-9 5h-2v2l-5 2-8 2-10 4-18 3h-15l-7-1v-1l8-1h23l1-3 12-1 4-3 10-2z" fill="#FDE2E2"/>
<path transform="translate(898,455)" d="m0 0 2 1-9 9-8 7-4 2-2 4-4 4-8 7-5 6-1-2 2-5 17-17 8-7 5-2z" fill="#FDE8E8"/>
<path transform="translate(459,594)" d="m0 0 1 2-9 25-3 14h-2v9l-2 8h-2l-1 11h-1v-12l3-6 1-10 3-7 1-9 3-7 3-9 4-8z" fill="#FDDEDF"/>
<path transform="translate(697,644)" d="m0 0h8l-3 3-13 3-20 6-12 2v2l-6 1v2l-7 4 2-4 7-4 13-7 13-2 2-2 11-1z" fill="#FCDADB"/>
<path transform="translate(663,568)" d="m0 0 2 1-3 3-10 2-19 10-7 4-8 8-7 2 6-7 4-2 1-2 3-1 1-2 7-4 20-10z" fill="#FEEFEE"/>
<path transform="translate(1089,372)" d="m0 0 1 2-1 3-5 3-3 6-5 5-4 5-5 3-3 4v3l4 4 3 4-1 2-10-10 1-6 3-1 2-4 6-5 6-7h2l2-4z" fill="#FEFDFB"/>
<path transform="translate(395,631)" d="m0 0h1v19l-4 5-2 1h-23l-7-1-1-3 32 2 1-9z" fill="#FFFFFD"/>
<path transform="translate(1151,965)" d="m0 0 1 4-2 9-1 9-1 2 13-1h63v1l-49 1h-28l1-19z" fill="#F9A3A7"/>
<path transform="translate(555,472)" d="m0 0 2 1-12 9h-2v2l-9 7-12 11-8 8-5 7-9 9 1-5 7-7 2-3h2l2-4 16-16h2l2-4h2v-2l10-7z" fill="#FEF1F0"/>
<path transform="translate(1515,780)" d="m0 0h9v36l-1 4-3 1 2-22 1-18-6 2-22 4-4-1 5-2 11-2z" fill="#FFFFFD"/>
<path transform="translate(349,784)" d="m0 0h46l1 2 1 9 2 2 1 4v9h-1l-2-9-3-6-1-10-25 1-20 1z" fill="#FDD9DA"/>
<path transform="translate(1386,736)" d="m0 0 4 1-3 2-13 2-3 2-16 2-4 2-15 2-2-2 15-4 19-4 15-2z" fill="#F89BA0"/>
<path transform="translate(432,1196)" d="m0 0 2 1-7 6-11 5-8 2-1 1-16 1-15-1-2-3 9 1h14l15-2v-2l12-4z" fill="#FFFFFD"/>
<path transform="translate(399,736)" d="m0 0 16 1 22 2 3 21v6h-1l-3-9v-17h-30l-7-2z" fill="#FEFEFC"/>
<path transform="translate(367,1022)" d="m0 0v3l-9 9-3 5-2 2h-3l-2 4-6 7-5 5-9 10-1-2 3-5 8-9h2l2-4z" fill="#FCD7D8"/>
<path transform="translate(336,363)" d="m0 0 3 1 1 3-5 4-8 4-8 8-6 3-10 9-6 5-3-1 14-12 18-14 6-5 3-2z" fill="#FFFFFD"/>
<path transform="translate(440,767)" d="m0 0h1l4 20 5 17 4 14 2 5-1 3-3-6-8-24-2-11-2-4z" fill="#FEFAF8"/>
<path transform="translate(1321,823)" d="m0 0m-9 1h9l-2 2-36 8-14 3-4-1 10-4 16-2 2-2 14-2z" fill="#FEFCFA"/>
<path transform="translate(1524,662)" d="m0 0h2l1 12v31h-3l-2-6 1-2 1-12z" fill="#F6898D"/>
<path transform="translate(1081,273)" d="m0 0 3 1-12 12-8 7-27 27-3 1v-2l7-6 5-6 7-6 5-6 8-7z" fill="#FEE2E3"/>
<path transform="translate(1120,48)" d="m0 0 5 2 1 1 10 2 2 2 9 2 17 8 10 6-2 1-11-5-8-4-10-4-14-5-11-4z" fill="#FEF3F2"/>
<path transform="translate(661,428)" d="m0 0h62l1 3 4 1-14-1-4-1h-37l-9 1-7 1z" fill="#FEFBF9"/>
<path transform="translate(618,243)" d="m0 0h2l-1 4-16 2-4 2-19 3-7 2h-6l3-2 42-10z" fill="#FFFFFD"/>
<path transform="translate(403,982)" d="m0 0v3l-5 5-3 5-7 6-5 5-9 10-5 6-1-4 8-8 2-3h2l2-4 8-8h2l2-4h2l2-4z" fill="#FEF5F4"/>
<path transform="translate(989,16)" d="m0 0h21l3 3-3 1-18-3v6l-2 5-2 11-3 9h-1v-9l3-6 1-16z" fill="#FEF4F3"/>
<path transform="translate(459,833)" d="m0 0h2l2 9h2l5 13 3 5 6 11 4 5 1 5-4-4-3-5-5-7-8-16-4-9z" fill="#FEEBEB"/>
<path transform="translate(213,716)" d="m0 0h17v1l-13 2v1l18 2 15 1v1h-37l-1-1v-6z" fill="#FFFFFD"/>
<path transform="translate(435,699)" d="m0 0 1 3-8 1-34 1v-1h6l1-3z" fill="#FDDDDD"/>
<path transform="translate(1279,471)" d="m0 0 3 1-3 3-6 3-6 5-6 3-9 6-14 8-3 3-5 1 5-5 20-12 9-6 8-6 6-3z" fill="#FEF0F0"/>
<path transform="translate(410,162)" d="m0 0 2 1-16 12-19 14-11 9h-3l9-9 10-7 13-10z" fill="#FFFFFD"/>
<path transform="translate(1500,475)" d="m0 0 3 2 2 14 2 2 1 5v12l-2-4v-4l-3-1-3-11v-4h2z" fill="#F6858A"/>
<path transform="translate(918,843)" d="m0 0h2v6l-6 11-5 7-6 12-6 7-1-2 4-6 1-3h2l2-6 6-10 3-7z" fill="#FEEBEB"/>
<path transform="translate(1176,72)" d="m0 0 7 1 26 13 7 4 1 4h-2l-3-3-17-8-2-2-10-4-7-4z" fill="#FEF8F7"/>
<path transform="translate(1484,423)" d="m0 0 3 1 2 10 3 7-1 4-5-14v-2h-6v2l-3 2h-3v2l-6 3h-2v2l-5 3-2-1 8-6 6-4z" fill="#FEEDED"/>
<path transform="translate(187,387)" d="m0 0v3l-25 38-3 3 2-6 5-9 6-9 7-9 3-6z" fill="#FFFFFD"/>
<path transform="translate(304,318)" d="m0 0 7 6 5 7 4 7 4 5 4 7 4 5 1 5-4-4-7-10-18-26z" fill="#FFFFFD"/>
<path transform="translate(1437,724)" d="m0 0 4 1-7 1v2l-10 2-7 2-9 2-1 1-15 2-2-2 10-2 5-2 28-6z" fill="#FBBFC1"/>
<path transform="translate(1453,1052)" d="m0 0h22l1 1-1 10-3 9h-2l2-12 2-5h-23z" fill="#FEFDFB"/>
<path transform="translate(1121,336)" d="m0 0v3l-4 5-5 4-8 11-9 8-3 5-2-1 3-6 8-8 7-8z" fill="#FCC2C5"/>
<path transform="translate(114,808)" d="m0 0 21 1 40 2v1h-40l-19-1z" fill="#FEF9F7"/>
<path transform="translate(323,824)" d="m0 0 18 1 34 2v1h-44l-7-1z" fill="#FEF9F7"/>
<path transform="translate(1102,309)" d="m0 0 2 1-3 4-2 5-27 27-1-3 8-7 7-8 12-13 3-5z" fill="#FDE8E7"/>
<path transform="translate(598,980)" d="m0 0 6 1 4 3 22 7 17 4v1h-8l-8-2-27-9h-7l-2 1 2-5z" fill="#FFFFFD"/>
<path transform="translate(935,799)" d="m0 0 2 1-1 9-7 14-3 9-4 9-2 2 1-7h2v-5l6-14 3-8z" fill="#FCD4D5"/>
<path transform="translate(943,760)" d="m0 0h1v15l-1 5h-2l-1 13-1 3h-2l-1 2 1-11 2-10 3-13z" fill="#FCCBCC"/>
<path transform="translate(757,586)" d="m0 0 5 2 1 2-5 5-4 2-2 5-12 12-4 1 2-4h2l2-4 12-12h2l2-4v-3z" fill="#FEFAF9"/>
<path transform="translate(782,448)" d="m0 0h7l16 8 10 7 5 3-3 1-9-5-4-3-7-3-12-6z" fill="#FEECEC"/>
<path transform="translate(1247,148)" d="m0 0 2 1-2 6-26 26-1-3 6-5 7-8 13-14z" fill="#FDE7E7"/>
<path transform="translate(979,65)" d="m0 0h1l-1 9-10 39h-1v-9l3-8 2-11 2-4 2-12z" fill="#FFFFFD"/>
<path transform="translate(173,796)" d="m0 0h41v1l-29 2-6 1h-10l3-1z" fill="#FEFAF8"/>
<path transform="translate(1175,228)" d="m0 0h2l-2 7-26 26-1-3 5-4 7-8 7-7 7-8z" fill="#FEE8E8"/>
<path transform="translate(608,198)" d="m0 0 3 3 3 11 2 6 2 10 2 6v7l-2-4-8-27-2-8z" fill="#FFFFFD"/>
<path transform="translate(1060,356)" d="m0 0 1 2-2 5-26 26-1-3 7-6 7-8 12-13z" fill="#FDE8E8"/>
<path transform="translate(1447,1143)" d="m0 0h1l-1 8-3 9-3 7-3 10-5 10-1-3 3-8h2v-6l5-13 2-8h2v-5z" fill="#FDDBDC"/>
<path transform="translate(719,568)" d="m0 0 11 2 16 8 8 5-3 1-16-8-5-3-10-2z" fill="#FCCFD0"/>
<path transform="translate(792,975)" d="m0 0 4 1-16 8-9 4-6 2-9 2 1-2h2v-2l11-3 8-3h3v-2z" fill="#FEEDEC"/>
<path transform="translate(223,816)" d="m0 0 18 1 27 2v1h-34l-10-1z" fill="#FFFFFD"/>
<path transform="translate(245,712)" d="m0 0h44v1l-34 2-7 1h-8z" fill="#FEF4F3"/>
<path transform="translate(592,620)" d="m0 0 1 2-3 7-12 24-2 1 1-5 3-10 4-5 1-4h2l2-6z" fill="#FDE0E0"/>
<path transform="translate(1211,190)" d="m0 0 1 4-28 28v-3l16-17z" fill="#FEEDEC"/>
<path transform="translate(1083,35)" d="m0 0 9 2 3 2 9 2 3 2 8 2 5 3-3 1-37-12z" fill="#FFFFFD"/>
<path transform="translate(432,949)" d="m0 0 1 3-7 8-5 5-4 5-3 3-7 8h-3l7-7 2-5 7-7 7-8z" fill="#FDDEDE"/>
<path transform="translate(1128,510)" d="m0 0 3 4 5 11 6 17v3h2l2 6v4l2 1-4-1-2-7-2-3-3-9-5-12-3-9z" fill="#FEEBEA"/>
<path transform="translate(1357,815)" d="m0 0m-8 1h8l-2 2-12 3-10 3-12 1 1-2 6-2 1-1 14-2z" fill="#FDE6E6"/>
<path transform="translate(567,746)" d="m0 0 2 4v2h2l2 10 3 7 2 7 2 5v5l-2-1-4-10-2-12h-2l-3-12z" fill="#FDE3E2"/>
<path transform="translate(1423,292)" d="m0 0 4 4 6 10 11 21 4 8-1 3-8-14-3-8-10-17v-2l-3-1z" fill="#FEF9F8"/>
<path transform="translate(1135,274)" d="m0 0 1 4-27 27v-3l7-8 5-5 9-10z" fill="#FDE6E6"/>
<path transform="translate(1327,748)" d="m0 0h7l-3 3-13 2-3 2-16 1 3-2z" fill="#FBC5C7"/>
<path transform="translate(643,432)" d="m0 0h16v1l-27 5-13 4h-2v-2l9-4 13-2z" fill="#FCD3D5"/>
<path transform="translate(1299,62)" d="m0 0 2 1-14 12-10 8-5 6-4 2 2-4 12-12 8-7 5-4z" fill="#FEEFEE"/>
<path transform="translate(289,788)" d="m0 0h36v1l-26 2-6 1h-11v-1l6-2z" fill="#FEFAF8"/>
<path transform="translate(1203,604)" d="m0 0 2 1-6 7-6 1-6 4-20 12-2-1 5-4 6-3 9-6 12-7z" fill="#FDDFDF"/>
<path transform="translate(233,792)" d="m0 0h35v1l-14 1-4 1-22 1z" fill="#FEF5F4"/>
<path transform="translate(355,732)" d="m0 0 26 2 18 1v1h-42z" fill="#FEF9F8"/>
<path transform="translate(1519,821)" d="m0 0h1v27l-1 4-2 1-2 3 2-23z" fill="#FDE3E3"/>
<path transform="translate(1019,401)" d="m0 0h1v5l-27 27v-3l10-10 7-8 4-5z" fill="#FEEBEA"/>
<path transform="translate(175,812)" d="m0 0 42 3v1h-40z" fill="#FFFFFD"/>
<path transform="translate(806,775)" d="m0 0 1 3-2 8-5 9-5 7-3 5-1-2 7-14 5-9z" fill="#FDE4E4"/>
<path transform="translate(751,709)" d="m0 0h1v14l-3 2-1 9-3 4-2 5-7 6 1-4 4-4 4-9 5-16z" fill="#FEF3F2"/>
<path transform="translate(1512,543)" d="m0 0h2l4 21v13l-2-1-2-15-2-1 1-4-1-7z" fill="#F58287"/>
<path transform="translate(279,281)" d="m0 0 5 5 4 5 3 5 5 7 4 7 4 5-1 3-12-17-12-18z" fill="#FFFFFD"/>
<path transform="translate(575,654)" d="m0 0h1v7l-1 3h-2l-1 13-1 3-4 3 1-9 4-15 1-2h2z" fill="#FCDCDC"/>
<path transform="translate(345,612)" d="m0 0h36v1l-27 2-6 1h-9l4-2z" fill="#FEFAF9"/>
<path transform="translate(477,557)" d="m0 0 1 2-11 22-4 10-3 2 1-4 4-12 5-9 5-7z" fill="#FDE9E8"/>
<path transform="translate(1504,502)" d="m0 0h2l3 9 2 2 1 5v12h-1l-1-7-5-8z" fill="#F9B1B3"/>
<path transform="translate(979,445)" d="m0 0h1v5l-26 26v-3l9-9 7-8z" fill="#FEEAEA"/>
<path transform="translate(1220,221)" d="m0 0v3l-6 7-4 5-7 6-3 6-5 5-2-1 2-2 2-5 11-11 2-3h2l2-4z" fill="#FEEAEA"/>
<path transform="translate(915,65)" d="m0 0h1v17l-1 2h-2l-1 13-1 3-3 1 5-26z" fill="#FFFFFD"/>
<path transform="translate(275,820)" d="m0 0 28 2 13 1v1h-30l-10-1z" fill="#FFFFFD"/>
<path transform="translate(193,624)" d="m0 0h36v1l-34 3h-8l4-2z" fill="#FEFAF9"/>
<path transform="translate(996,318)" d="m0 0h2l-3 9-1 1h-8l-3-2v-2h-2l1-2h9z" fill="#FAACB0"/>
<path transform="translate(446,138)" d="m0 0 2 1-27 18-7 5-2-1 9-8 10-6 9-6z" fill="#FFFFFD"/>
<path transform="translate(675,768)" d="m0 0 7 1h19l8-1-2 3-4 1h-26z" fill="#FFFFFD"/>
<path transform="translate(293,616)" d="m0 0h34v1l-24 2-6 1h-10v-1h5z" fill="#FEFAF8"/>
<path transform="translate(891,181)" d="m0 0h1v17l-3 3-1 12-1 3-3 1 5-26z" fill="#FFFFFD"/>
<path transform="translate(523,1081)" d="m0 0 2 1-2 5-4 5h-2l-2 7-4 5-4 4h-2l1-4 4-4 1-3h2l1-4 8-9z" fill="#FDE8E8"/>
<path transform="translate(1485,787)" d="m0 0h5l-2 2-38 8-3-1 9-3 2-1 13-2 6-2z" fill="#FEF6F5"/>
<path transform="translate(297,708)" d="m0 0h34v1l-31 3h-9v-1h5z" fill="#FEFAF8"/>
<path transform="translate(1291,548)" d="m0 0 2 1-9 7-10 5-18 12-4 1 5-5 11-7 17-10z" fill="#FEF7F6"/>
<path transform="translate(183,636)" d="m0 0 24 2 19 1v1h-41z" fill="#FEF9F7"/>
<path transform="translate(1520,583)" d="m0 0 3 1 1 3v35h-1z" fill="#FFFFFD"/>
<path transform="translate(939,489)" d="m0 0 2 1-2 5-23 23-1-3 8-7 7-8z" fill="#FEEDED"/>
<path transform="translate(1316,448)" d="m0 0 2 1-7 6-8 4-9 6-10 6-2-1 10-7 16-10z" fill="#FEEFEF"/>
<path transform="translate(816,741)" d="m0 0h1v7l-4 16h-2l-2 9-2 2 2-10 2-5 1-9z" fill="#FCDBDC"/>
<path transform="translate(650,856)" d="m0 0h8l2 1v2l14 1 3 3v1h-7l-19-6z" fill="#FCD2D3"/>
<path transform="translate(315,648)" d="m0 0 26 2 12 1v1h-30l-7-1z" fill="#FFFFFD"/>
<path transform="translate(1442,452)" d="m0 0h2v2l-6 2v2l-5 3h-3v2l-9 5h-2v2l-8 5-3-1 15-10 14-9z" fill="#FEEBEB"/>
<path transform="translate(1360,420)" d="m0 0 2 1-7 6-6 3-9 6-12 7-2-1 1-2 6-3 15-9 10-7z" fill="#FEECEC"/>
<path transform="translate(349,704)" d="m0 0h33v1l-24 2-6 1h-8l4-1z" fill="#FEFAF8"/>
<path transform="translate(1168,661)" d="m0 0h1l3 27v5l-3-1-1-2z" fill="#FFFFFD"/>
<path transform="translate(145,628)" d="m0 0h22v1l-21 2 1 2 16 2v1h-18l-1-1v-6z" fill="#FFFFFD"/>
<path transform="translate(1279,114)" d="m0 0 1 4-23 23-1-3 7-6 7-8z" fill="#FEF1F1"/>
<path transform="translate(1217,772)" d="m0 0h9l-3 3-16 2-4 2-12 1v-1l8-2 4-2z" fill="#FCD5D6"/>
<path transform="translate(311,728)" d="m0 0 26 2 12 1v1h-28l-9-1z" fill="#FFFFFD"/>
<path transform="translate(1187,258)" d="m0 0v3l-3 5-8 10-5 3-3 2 1-4 11-11 2-3h2l2-4z" fill="#FCCBCD"/>
<path transform="translate(319,1078)" d="m0 0 1 4-5 10h-2l-2 9-2 11h-1v-13l6-12z" fill="#FFFFFD"/>
<path transform="translate(591,990)" d="m0 0 1 4-5 6h-2l-2 7-4 5-4 4-2-1 1-3h2l2-4 1-3h2l1-4h2v-3l4-4z" fill="#FDE5E5"/>
<path transform="translate(455,1174)" d="m0 0 1 4-18 18-4-1 13-12z" fill="#FEF4F3"/>
<path transform="translate(1185,852)" d="m0 0h8l4 2-21 4h-6l-1 7h-1v-8l1-1 11-1z" fill="#FCD4D5"/>
<path transform="translate(271,644)" d="m0 0 14 1 23 2v1h-28l-8-1z" fill="#FFFFFD"/>
<path transform="translate(1227,504)" d="m0 0 3 1-7 6-6 3-9 6-7 4-3-1 17-11 11-7z" fill="#FEEBEB"/>
<path transform="translate(458,922)" d="m0 0 2 1-4 2v3l-5 5-5 6-8 7-3 5-2 1 1-5 17-17 3-5z" fill="#FBC8CA"/>
<path transform="translate(1174,135)" d="m0 0 2 1-3 5-28 28v-3l28-28z" fill="#FEE1E2"/>
<path transform="translate(1326,53)" d="m0 0v3l-4 8-5 6-3 6-7 7v-3l8-11 9-14z" fill="#FEF1F0"/>
<path transform="translate(781,12)" d="m0 0h30v1l-27 3h-6l2-1z" fill="#FFFFFD"/>
<path transform="translate(358,1202)" d="m0 0 5 1 14 4 18 1h7v1l-5 1h-14l-17-2-8-5z" fill="#F89EA2"/>
<path transform="translate(227,640)" d="m0 0 37 3v1h-29l-7-1z" fill="#FFFFFD"/>
<path transform="translate(395,631)" d="m0 0h1v19l-4 5h-6v-1h5l1-9z" fill="#FEF4F3"/>
<path transform="translate(1247,578)" d="m0 0m-1 1m-2 1h2l-1 3h-2v2l-10 5-3 3-5 2h-3l4-4h2v-2l9-5z" fill="#F6868B"/>
<path transform="translate(1244,193)" d="m0 0 1 4-3 1-2 4-3 1-1 4-5 3-6 7-1-3 8-8 7-8z" fill="#FCCBCD"/>
<path transform="translate(800,641)" d="m0 0 4 1 5 16-1 3-4-9-1-7-4 2-10 10v-3l9-9z" fill="#FDE6E6"/>
<path transform="translate(577,71)" d="m0 0 2 1 1 3v15l-2-4-3-12h-5v2h-5l4-3z" fill="#FEFCFA"/>
<path transform="translate(1114,1107)" d="m0 0 1 4-6 18-2 7-4 9-1-2z" fill="#FEF6F5"/>
<path transform="translate(749,436)" d="m0 0h8l6 3 9 2 9 5 1 2-8-2v-2h-5v-2l-10-2-10-3z" fill="#FDE9E8"/>
<path transform="translate(376,322)" d="m0 0 4 5 3 6 5-2 12-7 2 1-8 6-9 5h-4l-4-9z" fill="#FFFFFD"/>
<path transform="translate(616,835)" d="m0 0 4 2 9 6 8 5 12 6 1 2h-4v-2l-9-3-21-14z" fill="#FEF1F0"/>
<path transform="translate(1515,780)" d="m0 0h9v7h-1v-6l-6 2-22 4-4-1 5-2 11-2z" fill="#FEFBF9"/>
<path transform="translate(349,784)" d="m0 0h35v1l-28 2h-8z" fill="#FFFFFD"/>
<path transform="translate(1293,756)" d="m0 0h5l-3 3-13 2-3 2-15 1v-1l25-6z" fill="#FDE0E0"/>
<path transform="translate(899,534)" d="m0 0 1 4-4 5 4 2 4 6-1 3-5-5-5-7 1-3h2l2-4z" fill="#FCD5D5"/>
<path transform="translate(1092,445)" d="m0 0 5 5 4 5v3h2l5 9 1 3-4-2-5-7-6-12z" fill="#FEF1F0"/>
<path transform="translate(432,1196)" d="m0 0 2 1-7 6-11 5-8 1 1-2h3v-2l12-4z" fill="#FEEDED"/>
<path transform="translate(1380,809)" d="m0 0m-1 1m-4 1h4l-1 3-17 3-1 1h-5l3-3 6-2 1-1z" fill="#FDDFDF"/>
<path transform="translate(584,794)" d="m0 0 5 5 3 4 4 7 4 5-1 3-7-8-4-8-3-3z" fill="#FDE5E5"/>
<path transform="translate(697,644)" d="m0 0h8l-3 3-13 3-6 2h-7l5-4 11-1z" fill="#FEF1F0"/>
<path transform="translate(245,620)" d="m0 0h32v1l-24 2h-10z" fill="#FFFFFD"/>
<path transform="translate(634,579)" d="m0 0 2 1-3 4-7 4-8 8-7 2 6-7 4-2 1-2 3-1 1-2 7-4z" fill="#FDE2E2"/>
<path transform="translate(524,497)" d="m0 0 2 1-12 12-5 7-9 9 1-5 7-7 2-3h2l2-4z" fill="#FEEBEB"/>
<path transform="translate(1515,708)" d="m0 0 4 1-4 2-25 5-10 1 4-2z" fill="#FEFEFC"/>
<path transform="translate(779,822)" d="m0 0v3l-6 7-11 8-5 4h-2v2l-4 1 11-11 6-3 5-4z" fill="#FDDFDF"/>
<path transform="translate(1368,499)" d="m0 0h2v2l-9 5h-2v2l-6 3h-2v2l-9 5-2-1 10-7 11-7z" fill="#FEFBFA"/>
<path transform="translate(756,989)" d="m0 0 3 1-8 5-16 1v-2l19-4z" fill="#FDDBDC"/>
<path transform="translate(400,810)" d="m0 0 3 2 1 4v7h2l2 4v4l-5 1-2-2h3l-4-17z" fill="#FEF6F5"/>
<path transform="translate(265,724)" d="m0 0 26 2 14 1v1h-21l-16-1v-2z" fill="#FEFBFA"/>
<path transform="translate(1398,480)" d="m0 0 2 1-3 3-8 4-3 1v2l-6 3h-2v2l-5 3-3-1 15-10 10-6z" fill="#FEF2F1"/>
<path transform="translate(1492,446)" d="m0 0 3 3 3 11 2 6v9l-2-4-6-21z" fill="#FEFAF9"/>
<path transform="translate(586,452)" d="m0 0h2l-1 3-9 5-9 6-7 4-2-1 10-7 11-7z" fill="#FEEAE9"/>
<path transform="translate(636,738)" d="m0 0 5 5 10 11 7 5-4 1-17-17z" fill="#FEF0F0"/>
<path transform="translate(1164,629)" d="m0 0h1l3 24v5l-4-4z" fill="#FEFAF9"/>
<path transform="translate(1236,583)" d="m0 0 2 1-8 5h-2v2l-12 7-6 4-2-1 10-7 11-7z" fill="#FEFBFA"/>
<path transform="translate(1324,527)" d="m0 0 2 1-17 11-10 7-3-1 10-7 11-7z" fill="#FEFDFC"/>
<path transform="translate(1089,372)" d="m0 0 1 2-1 3-5 3-3 6-5 5-4 5h-2l2-4 3-3 3-6h2l2-4z" fill="#FCC8CA"/>
<path transform="translate(1386,736)" d="m0 0 4 1-3 2-13 2-3 2-15 1v-1l16-4z" fill="#FFFFFD"/>
<path transform="translate(775,670)" d="m0 0 1 4-15 15v-3l11-13z" fill="#FEF1F0"/>
<path transform="translate(837,480)" d="m0 0 4 2 7 3v2l4 2 5 6-3 1-6-7-11-7z" fill="#FDEAE9"/>
<path transform="translate(343,1047)" d="m0 0v3l-8 10-5 5-3 2 2-6 12-12z" fill="#FEF6F4"/>
<path transform="translate(820,960)" d="m0 0 2 1-8 6-15 8-3-1 6-4h3v-2l10-4z" fill="#FCD7D8"/>
<path transform="translate(1356,203)" d="m0 0 4 2 7 8 8 8 1 5-10-10-9-10z" fill="#FEF4F3"/>
<path transform="translate(1456,1117)" d="m0 0 1 2-3 10-4 12-2 2 1-9 4-12h2z" fill="#FDE6E5"/>
<path transform="translate(1197,610)" d="m0 0m-2 1h2v2l-6 4h-2l-2 4-3 2-4-1 4-4 9-6z" fill="#F58388"/>
<path transform="translate(1520,603)" d="m0 0h2l1 4v20l-2-1v-6l-1-6z" fill="#F6858A"/>
<path transform="translate(1255,573)" d="m0 0m-5 1h5l-3 5-6 2-5 2-3-1z" fill="#FAB8BA"/>
<path transform="translate(147,562)" d="m0 0 1 4-7 8-3 6-5 6-1-2 12-18z" fill="#FFFFFD"/>
<path transform="translate(1516,555)" d="m0 0 3 1 1 4v23h-1l-2-19z" fill="#FEF7F6"/>
<path transform="translate(879,238)" d="m0 0h1v15l-3 5-2 6-4-1 3-1z" fill="#FFFFFD"/>
<path transform="translate(439,666)" d="m0 0 1 2-2 15-1 13h-1v-25z" fill="#FFFFFD"/>
<path transform="translate(1170,540)" d="m0 0 4 1-8 6-10 5-2-1 6-5 8-4h2z" fill="#FEEAEA"/>
<path transform="translate(308,1140)" d="m0 0h2l4 13v3h2l2 7-4-2-3-9-3-6z" fill="#FEF2F1"/>
<path transform="translate(1163,897)" d="m0 0h1l-1 13-2 11h-1v-18z" fill="#FFFFFD"/>
<path transform="translate(1167,870)" d="m0 0 1 2-3 23h-1v-21z" fill="#FFFFFD"/>
<path transform="translate(1435,1182)" d="m0 0 1 2-3 7-4 13-3 1 3-12z" fill="#FEF3F2"/>
<path transform="translate(1122,1081)" d="m0 0 1 3-7 23-1-4 3-12 3-9z" fill="#FFFFFD"/>
<path transform="translate(650,996)" d="m0 0 30 3v1h-18l-10-1z" fill="#FEF6F5"/>
<path transform="translate(1507,905)" d="m0 0h1v19l-1 4-3 1 2-17z" fill="#FEF8F7"/>
<path transform="translate(1213,847)" d="m0 0h6l-4 2-18 4-4-1 9-4z" fill="#FEFCFA"/>
<path transform="translate(1231,843)" d="m0 0 6 1v1l-17 4h-5l4-1 2-4z" fill="#FCD6D7"/>
<path transform="translate(1495,970)" d="m0 0h1v13l-2 1h-19v-1l17-1z" fill="#FFFFFD"/>
<path transform="translate(361,199)" d="m0 0 2 1-14 12-6 5-2-1 7-6 5-5 6-5z" fill="#FFFFFD"/>
<path transform="translate(1260,174)" d="m0 0v3l-6 7-3 5-4 4-2-1 2-2 2-5z" fill="#FEEAEA"/>
<path transform="translate(1499,950)" d="m0 0h1v14l-1 4h-2l-1 2 1-13z" fill="#FEF1F0"/>
<path transform="translate(1159,921)" d="m0 0h1l-1 12-2 11h-1v-17z" fill="#FFFFFD"/>
<path transform="translate(684,863)" d="m0 0 23 1v1l-8 1h-15l-7-1v-1z" fill="#F99EA3"/>
<path transform="translate(721,859)" d="m0 0 4 1-13 4h-8l4-1 1-3z" fill="#FCD4D5"/>
<path transform="translate(436,740)" d="m0 0 2 4 2 16v6h-1l-3-9z" fill="#FFFFFD"/>
<path transform="translate(1071,416)" d="m0 0h2l4 4 4 8 4 4 3 4-1 2-10-11-3-6z" fill="#FEEDED"/>
<path transform="translate(1167,282)" d="m0 0v3l-5 6-7 9-5 4 2-4 4-4 2-5z" fill="#FCCACC"/>
<path transform="translate(382,182)" d="m0 0m-1 1v3l-14 11-4 2 6-7 10-8z" fill="#FEFDFB"/>
<path transform="translate(1303,85)" d="m0 0 1 4-7 8-7 7v-3l11-13z" fill="#FEF1F0"/>
<path transform="translate(1462,1095)" d="m0 0h2l-1 8-3 9-2 5h-2l3-13z" fill="#FEFCFA"/>
<path transform="translate(3,862)" d="m0 0h1l2 10-4 13h-1l1-15z" fill="#FDC4C7"/>
<path transform="translate(935,799)" d="m0 0 2 1-1 9-6 12-1-4 3-8z" fill="#FEFCFA"/>
<path transform="translate(1018,335)" d="m0 0 2 1-4 6-14 13v-3l14-14z" fill="#FAA9AD"/>
<path transform="translate(640,669)" d="m0 0v3l-3 4-4 7-3 6-1 5h-1v-7l3-5 2-5z" fill="#FEE9E9"/>
<path transform="translate(459,594)" d="m0 0 1 2-7 19h-2l2-10 5-10z" fill="#FFFFFD"/>
<path transform="translate(1512,531)" d="m0 0 3 1 1 6v16h-1l-2-15z" fill="#FEF1F0"/>
<path transform="translate(488,888)" d="m0 0 1 3-11 11-3 5-3 2 2-6 13-13z" fill="#FBC9CB"/>
<path transform="translate(919,45)" d="m0 0h1v17l-3 3h-1l1-9z" fill="#FFFFFD"/>
<path transform="translate(559,1032)" d="m0 0h2l-2 7-4 5-4 4h-2l2-5 7-8z" fill="#FDDEDE"/>
<path transform="translate(1440,796)" d="m0 0h7l1 2-12 3-4-1 4-3z" fill="#FCD9DA"/>
<path transform="translate(710,428)" d="m0 0h13l1 3 4 1-14-1-4-1z" fill="#FEF4F3"/>
<path transform="translate(730,996)" d="m0 0 4 1h-2v2l-12 1h-15v-1l20-2z" fill="#FFFFFD"/>
<path transform="translate(790,807)" d="m0 0 1 2-4 7-5 5-2 1 1-5 5-6h2z" fill="#FDE5E5"/>
<path transform="translate(940,646)" d="m0 0 3 3 1 5v15h-1l-3-18z" fill="#FFFFFD"/>
<path transform="translate(895,161)" d="m0 0h1v16l-1 3-3 1 1-9z" fill="#FFFFFD"/>
<path transform="translate(1015,19)" d="m0 0 14 1 3 1v2l2 1-9-1-10-2z" fill="#FFFFFD"/>
<path transform="translate(504,1108)" d="m0 0 1 2-2 5-4 5-4 4-2-1 1-3h2l2-4z" fill="#FEEEEE"/>
<path transform="translate(1400,805)" d="m0 0m-1 1 1 2-18 4-3-1 2-2z" fill="#FFFFFD"/>
<path transform="translate(1452,346)" d="m0 0 3 3 4 8v3l-6 4-3-1 5-3-1-7-2-4z" fill="#FDD7D8"/>
<path transform="translate(1323,44)" d="m0 0 5 1v8l-4 2 2-7-6 1 2-4z" fill="#FEEFEE"/>
<path transform="translate(1321,823)" d="m0 0m-9 1h9l-2 2-14 3-4-1z" fill="#FFFFFD"/>
<path transform="translate(440,767)" d="m0 0h1l3 15v5l-3-3-1-3z" fill="#FFFFFD"/>
<path transform="translate(1504,491)" d="m0 0 3 2 1 5v12l-2-4-2-10z" fill="#FEF0EF"/>
<path transform="translate(1042,272)" d="m0 0 1 3-13 13h-2l2-4 9-8z" fill="#FDD3D5"/>
<path transform="translate(640,67)" d="m0 0h1l3 16v5l-4-6z" fill="#FFFFFD"/>
<path transform="translate(1120,48)" d="m0 0 5 2 1 1 10 2 2 4-16-5-4-3z" fill="#FEEAEA"/>
<path transform="translate(883,902)" d="m0 0 1 4-7 7-5 6-2-1 9-11z" fill="#FEEBEB"/>
<path transform="translate(472,863)" d="m0 0 3 1 6 9 3 6-1 2-3-4-3-5-5-7z" fill="#FDE8E8"/>
<path transform="translate(899,142)" d="m0 0h1v15l-1 3-3 1 1-8z" fill="#FFFFFD"/>
<path transform="translate(903,122)" d="m0 0h1v16l-3 3-1-3z" fill="#FFFFFD"/>
<path transform="translate(923,26)" d="m0 0h1v16l-3 3-1-4z" fill="#FFFFFD"/>
<path transform="translate(994,16)" d="m0 0h16l3 3-3 1-16-3z" fill="#FFFFFD"/>
<path transform="translate(479,1140)" d="m0 0h2l-2 7-4 5-4 4-2-1 9-12z" fill="#FEE7E7"/>
<path transform="translate(535,1066)" d="m0 0 1 4-5 6-4 4h-2l2-4 4-6h2z" fill="#FCD1D2"/>
<path transform="translate(943,760)" d="m0 0h1v15l-1 5h-2l-1 2 1-8z" fill="#FFFFFD"/>
<path transform="translate(1309,752)" d="m0 0h9l-3 3-16 1 3-2z" fill="#FCDBDB"/>
<path transform="translate(627,697)" d="m0 0 1 3v14l-4-4v-8z" fill="#FFFFFD"/>
<path transform="translate(1128,510)" d="m0 0 3 4 5 11 1 6-4-4-4-12z" fill="#FFFFFD"/>
<path transform="translate(1102,355)" d="m0 0h2l-2 4-7 8-3 5-2-1 3-6 8-8z" fill="#FEF2F1"/>
<path transform="translate(1081,273)" d="m0 0 3 1-12 12-2-2z" fill="#FCCBCD"/>
<path transform="translate(1035,23)" d="m0 0 13 2 7 3-4 1-17-4z" fill="#FFFFFD"/>
<path transform="translate(1155,945)" d="m0 0 1 4-3 15h-1v-13z" fill="#FFFFFD"/>
<path transform="translate(1351,744)" d="m0 0 4 1-4 2-15 2-2-2 10-2z" fill="#FCDBDC"/>
<path transform="translate(603,606)" d="m0 0 1 4-5 6-4 4-2-1 1-3h2l2-4z" fill="#FEECEB"/>
<path transform="translate(752,599)" d="m0 0v3l-12 12-4 1 2-4 5-3z" fill="#F9ABAE"/>
<path transform="translate(663,568)" d="m0 0 2 1-3 3-10 2-4 1 5-5z" fill="#FEF3F2"/>
<path transform="translate(487,542)" d="m0 0v3l-4 8-5 4 2-6z" fill="#FDDBDC"/>
<path transform="translate(728,432)" d="m0 0h14l6 3-4 1-3-1-11-1z" fill="#FDE6E5"/>
<path transform="translate(1392,400)" d="m0 0 2 1-8 6-9 5-2-1 10-7z" fill="#FEF1F0"/>
<path transform="translate(981,322)" d="m0 0 6 3 4 1 5-4-1 5-1 1h-8l-3-2v-2h-2z" fill="#FFFFFD"/>
<path transform="translate(907,103)" d="m0 0h1v15l-3 3-1-2z" fill="#FFFFFD"/>
<path transform="translate(598,980)" d="m0 0 6 1 3 4h-10l-2 1 2-5z" fill="#FEF0EF"/>
<path transform="translate(852,935)" d="m0 0 2 1-12 12-4-1 4-4 5-3z" fill="#FDE2E2"/>
<path transform="translate(1249,839)" d="m0 0m-10 1h10l-2 2-8 2h-6l3-3z" fill="#FEFBF9"/>
<path transform="translate(1293,828)" d="m0 0h8v2l-12 3-4-1 7-3z" fill="#FEF4F3"/>
<path transform="translate(583,638)" d="m0 0 1 4-3 4-3 7-2 1 1-5 5-10z" fill="#FEFDFB"/>
<path transform="translate(883,219)" d="m0 0h1v15l-3 3-1-3z" fill="#FFFFFD"/>
<path transform="translate(491,1126)" d="m0 0 1 4-5 6-4 4-2-1 9-12z" fill="#FEF5F4"/>
<path transform="translate(307,1118)" d="m0 0h1v12l-4-4 1-6z" fill="#FFFFFD"/>
<path transform="translate(571,1018)" d="m0 0 1 4-5 6-4 4-2-1 9-12z" fill="#FEF6F4"/>
<path transform="translate(1483,714)" d="m0 0h5l-4 2h-4l-1 3h-9l4-3z" fill="#FCCCCE"/>
<path transform="translate(1214,513)" d="m0 0m-2 1h2l-2 4-11 6-3-1z" fill="#FEF4F3"/>
<path transform="translate(820,467)" d="m0 0 11 6 5 4 1 3-4-2-11-8-2-1z" fill="#FEEBEB"/>
<path transform="translate(1316,448)" d="m0 0 2 1-7 6-6 3-3-1z" fill="#FEE6E6"/>
<path transform="translate(523,1081)" d="m0 0 2 1-2 5-4 5h-2v2l-4 2 2-4 7-8z" fill="#FCD8D9"/>
<path transform="translate(403,982)" d="m0 0v3l-5 5-3 5-3 2 1-5 3-1 2-4z" fill="#FBCBCC"/>
<path transform="translate(1151,965)" d="m0 0 1 4-3 14h-1v-12z" fill="#FEFBF9"/>
<path transform="translate(1156,294)" d="m0 0v3l-11 12-1-3 9-9z" fill="#FFFFFD"/>
<path transform="translate(927,273)" d="m0 0 1 3-2 10 4 2-6-1-1-3 3-9z" fill="#FFFFFD"/>
<path transform="translate(1180,266)" d="m0 0v3l-11 12-1-3z" fill="#FFFFFD"/>
<path transform="translate(943,210)" d="m0 0 1 4-3 12h-1v-11z" fill="#FFFFFD"/>
<path transform="translate(947,194)" d="m0 0 1 4-3 12h-1v-11z" fill="#FFFFFD"/>
<path transform="translate(1286,143)" d="m0 0h2l-2 4-9 10-1-3 6-7h2z" fill="#FFFFFD"/>
<path transform="translate(636,50)" d="m0 0 2 3 2 9-1 4-3-4z" fill="#FFFFFD"/>
<path transform="translate(346,1196)" d="m0 0 6 2 8 5v1l-7-1-7-6z" fill="#FEF3F2"/>
<path transform="translate(1406,732)" d="m0 0h5l-4 3-15 2-2-2z" fill="#FEF6F5"/>
<path transform="translate(628,718)" d="m0 0 2 4 6 14-1 2-7-13z" fill="#FEFBF9"/>
<path transform="translate(738,576)" d="m0 0 8 2 8 5-3 1-13-7z" fill="#FCD9D9"/>
<path transform="translate(1128,326)" d="m0 0v3l-11 12-1-3z" fill="#FFFFFD"/>
<path transform="translate(1220,221)" d="m0 0v3l-6 7-5 5 1-5h2l2-4z" fill="#FDD7D9"/>
<path transform="translate(1330,176)" d="m0 0 5 1 5 6-1 3-9-9z" fill="#FFFFFD"/>
<path transform="translate(548,1048)" d="m0 0 1 2-2 5-4 5-3 1 2-5z" fill="#FDE5E5"/>
<path transform="translate(1511,891)" d="m0 0h1v9l-1 4-3 1 2-13z" fill="#FFFFFD"/>
<path transform="translate(811,671)" d="m0 0h2l3 9v6l-4-4z" fill="#FEF5F4"/>
<path transform="translate(935,242)" d="m0 0 1 4-3 12h-1v-11z" fill="#FFFFFD"/>
<path transform="translate(939,226)" d="m0 0 1 4-3 12h-1v-11z" fill="#FFFFFD"/>
<path transform="translate(333,223)" d="m0 0 2 1-10 9-2-1 3-5z" fill="#FFFFFD"/>
<path transform="translate(951,178)" d="m0 0 1 4-3 12h-1v-11z" fill="#FFFFFD"/>
<path transform="translate(955,162)" d="m0 0 1 4-3 12h-1v-11z" fill="#FFFFFD"/>
<path transform="translate(959,145)" d="m0 0 1 4-3 13h-1v-11z" fill="#FFFFFD"/>
<path transform="translate(963,129)" d="m0 0h1l-1 9-2 7h-1v-10z" fill="#FFFFFD"/>
<path transform="translate(918,843)" d="m0 0h2v6l-5 5v-3z" fill="#FDDADB"/>
<path transform="translate(1256,764)" d="m0 0h6l-3 3-5 1h-8l4-2z" fill="#FEF0F0"/>
<path transform="translate(494,531)" d="m0 0h2l-1 4h-2l-1 5-4 2 1-5z" fill="#FCD5D6"/>
<path transform="translate(967,113)" d="m0 0h1l-1 9-2 7h-1v-9z" fill="#FFFFFD"/>
<path transform="translate(358,1202)" d="m0 0 5 1 9 3v2h-6l-8-5z" fill="#FBC5C7"/>
<path transform="translate(1357,815)" d="m0 0m-8 1h8l-2 2-12 2 2-3z" fill="#FFFFFD"/>
<path transform="translate(1241,768)" d="m0 0h5l-3 3-15 1 4-2z" fill="#FFFFFD"/>
<path transform="translate(660,762)" d="m0 0 5 1 9 4v1h-8l-6-5z" fill="#FEF7F5"/>
<path transform="translate(1276,760)" d="m0 0h6l-3 3-15 1v-1z" fill="#FEFAF9"/>
<path transform="translate(1439,322)" d="m0 0 3 1 6 12-1 3-8-14z" fill="#FCD0D2"/>
<path transform="translate(931,258)" d="m0 0 1 4-3 11h-1v-10z" fill="#FFFFFD"/>
<path transform="translate(1235,203)" d="m0 0v3l-10 11-1-3 8-8z" fill="#FFFFFD"/>
<path transform="translate(1174,135)" d="m0 0 2 1-3 5-8 8h-2l2-4 8-7z" fill="#FDD5D7"/>
<path transform="translate(1326,53)" d="m0 0v3l-4 8-4 2 5-10z" fill="#FEFCFB"/>
<path transform="translate(468,1156)" d="m0 0 1 2-2 5-4 5-3 1 2-4z" fill="#FEE9E9"/>
<path transform="translate(616,835)" d="m0 0 4 2 9 6v3l-13-9z" fill="#FDE1E2"/>
<path transform="translate(574,772)" d="m0 0 1 2h2l3 7v5l-2-1-4-10z" fill="#FDDEDF"/>
<path transform="translate(756,696)" d="m0 0 1 2-1 9-4 2 2-9z" fill="#FEEFEE"/>
<path transform="translate(647,664)" d="m0 0 2 1-11 11v-3l4-6z" fill="#F4737A"/>
<path transform="translate(1181,617)" d="m0 0m-1 1m-1 1 1 2-9 6-6 2 5-5 6-3z" fill="#FEFCFB"/>
<path transform="translate(1382,490)" d="m0 0 4 1-6 3h-2v2l-5 3-3-1z" fill="#FEE6E6"/>
<path transform="translate(950,300)" d="m0 0 6 2 5 5-3 1-8-7z" fill="#FDE0E1"/>
<path transform="translate(584,106)" d="m0 0 3 3 1 4v9l-2-4-2-8z" fill="#FFFFFD"/>
<path transform="translate(580,91)" d="m0 0 3 2 1 3v10l-2-4z" fill="#FFFFFD"/>
<path transform="translate(983,49)" d="m0 0 1 4-3 12h-1v-9z" fill="#FFFFFD"/>
<path transform="translate(390,995)" d="m0 0h2l-2 4-5 5-1-3z" fill="#FEE6E6"/>
<path transform="translate(792,975)" d="m0 0 4 1-10 5h-5l2-2z" fill="#FBC0C2"/>
<path transform="translate(1169,856)" d="m0 0h10l-3 2h-6l-1 7h-1v-8z" fill="#FEF8F6"/>
<path transform="translate(1515,780)" d="m0 0h9v7h-1v-6l-6 2h-4v-2z" fill="#FCD0D2"/>
<path transform="translate(1386,736)" d="m0 0 4 1-3 2-5 1h-10v-1z" fill="#FEF5F4"/>
<path transform="translate(936,630)" d="m0 0 3 3 1 5v8l-2-4-2-8z" fill="#FFFFFD"/>
<path transform="translate(1279,471)" d="m0 0 3 1-3 3-6 3-5 1 4-4 6-3z" fill="#FDDFE0"/>
<path transform="translate(402,1208)" d="m0 0h6l-1 3h-10l1-2z" fill="#FEFAF8"/>
<path transform="translate(316,1163)" d="m0 0 4 2 4 7 1 2-4-2-5-7z" fill="#FEF7F5"/>
<path transform="translate(319,1078)" d="m0 0 1 4-5 10-1-2 4-11z" fill="#FABDC0"/>
<path transform="translate(472,905)" d="m0 0 1 2-7 9-2-3z" fill="#FEE5E5"/>
<path transform="translate(895,886)" d="m0 0 1 4-5 6-3 1 2-4z" fill="#FEF1F1"/>
<path transform="translate(592,808)" d="m0 0 6 4 2 3-1 3-7-8z" fill="#FDDADB"/>
<path transform="translate(442,647)" d="m0 0h1l-1 10-1 6h-1v-12z" fill="#FFFFFD"/>
<path transform="translate(399,614)" d="m0 0h1v10l-3 5-1-3z" fill="#FEFAF8"/>
<path transform="translate(757,586)" d="m0 0 5 2 1 2-5 5-2 1 1-4 2-3z" fill="#FCCFD1"/>
<path transform="translate(1267,479)" d="m0 0 3 1-3 3-6 3h-3l4-4z" fill="#FEEDEC"/>
<path transform="translate(1500,475)" d="m0 0 3 2 1 5v8l-2-4z" fill="#FFFFFD"/>
<path transform="translate(600,445)" d="m0 0m-1 1m-2 1h2v2l-11 5 1-3z" fill="#FEFCFA"/>
<path transform="translate(749,436)" d="m0 0h8l6 3-1 2-5-2-8-2z" fill="#FEF4F3"/>
<path transform="translate(1360,420)" d="m0 0 2 1-7 6-6 1 4-4z" fill="#FEE9E9"/>
<path transform="translate(1207,88)" d="m0 0 8 4 1 3-2 1v-2l-3 1v-2h-2v-3h-2z" fill="#F9A3A7"/>
<path transform="translate(1299,62)" d="m0 0 2 1-11 9v-3l7-6z" fill="#FDE7E6"/>
<path transform="translate(1069,32)" d="m0 0 7 1 4 2v2l-7-1v-2h-4z" fill="#FEEAEA"/>
</svg>