<svg xmlns="http://www.w3.org/2000/svg" version="1.1" viewBox="0 0 2048 622" width="1280" height="1280">
<path transform="translate(869,493)" d="m0 0h945l-1 4-1 14-1 6-1 11-1 1-1 13-1 1-1 15-1 1-1 16-1 1-1 15-1 1-1 13-1 1-1 16h-946v-14l1-1 1-15 1-1 1-15 1-2 1-12 1-2 1-15 1-1 1-15 1-2 1-14 1-2 1-12z" fill="#383638"/>
<path transform="translate(678,22)" d="m0 0 2 1v5l-8 12-4 5-7 8-5 5-3 5-13 13-3 5-15 15-3 5-16 16-3 5-17 17-3 5-16 16-3 5-17 17-3 5-18 18-3 5-17 17-3 5-17 17-4 6-17 17-2 6 5 8 10 20 6 18 2 8 1 11 1 1v43l-1 1-1 11-1 1-1 7-1 1-1 7-10 24-5 8-7 11h-2l-2 5-12 13-10 9-10 7-10 6-14 7-12 4-10 2h-41l-16-4-9-3-4 1-8 12-3 3-3 5-3 3-3 5-4 5-12 16-7 10-3 3-3 5-3 3-3 5-3 3-3 5-3 3-3 5-7 9-5 5-8 6-12 4h-13l-7-3-6-2-8-6-6-6-6-10-3-10v-5l-1-5 1-2 1-10 8-15 9-10 11-11 4-6 18-18 6-8 14-14 6-8 6-7h2v-2h2v-2h2l2-4v-4l-9-14-6-14-6-17-2-8-1-10-1-2v-8l-18-1-5-1-18-1-4-1-18-1-5-1-18-1-5-1-23-1v-4h16v-2l26-1 1-1 26-1 1-1 25-1 1-1h18v-15l8-32 6-13 5-10 9-14 11-14 11-11 14-10 13-8 8-4 12-4 7-1 1-1 9-1 1-1h32l1 1 9 1 9 2 11 5 10 4 11 7 16 12 3 2 2-5 9-9 11-8 145-145 6-4 49-49zm-330 268-12 2-15 8-4 4-6 3-5 8-3 3-8 16-2 6-1 7-1 1v36l4 13 4 9 6 9 6 8 8 7 10 6 10 4 7 1 1 1h15l1-1 7-1 10-4 16-12 4-5 6-8 7-14 3-8 2-8v-30l-7-22-1 2-4 2-9 9-2 6h-2v2h-2v2h-2l-3 10-1 1-1 7-4 10-9 9-10 5-15 1v-2l-6-2-8-6-6-7-4-8-2-10 4-12 7-8 11-6 14-3 7-3 26-26-2-3-15-7-8-2z" fill="#F2404A"/>
<path transform="translate(869,4)" d="m0 0h65v33h2v104h2v-7l7-24 7-26 6-22 14-49 2-8 1-1h69l1 1v134l-1 2h2l1-8 7-27 7-25 4-17 3-8 5-21 5-17 3-13 1-1h28l-2 12-3 7-1 7-3 7-1 7-3 7-1 7-1 1-2 9-3 8-1 6-3 7-1 7-1 1-1 7-3 7-3 14-1 1-1 7-1 1-1 7-3 7-1 7-3 7-1 7-3 7-1 7-1 1-3 14-3 9-5 19-1 1h-67l-1-61-1-1v-75h-2v7l-15 54-3 10-3 11-1 1-1 7-1 1-1 7-3 7-1 7-1 1-1 7-3 7-2 9-1 1h-65l-1-1-1-19-1-3-1-81-1-2-1-82-1-1v-33z" fill="#2F3134"/>
<path transform="translate(1546,250)" d="m0 0h92l16 4 16 8 6 5 5 3 6 8 7 10 6 15 2 7 1 9 1 1v54l-1 1-1 9-1 1-1 7-3 7-3 10-8 16-10 14-13 13-13 8-12 6-17 5-5 1-95 1-1-1v-9l1-2 1-15 1-1 1-15 1-1 1-15 1-2 1-15 1-1 1-15 1-1 1-15 1-2 1-15 1-1 1-17 1-1 1-15 1-1 1-15 1-2 1-15 1-1 1-15 1-1zm66 32-2 7-1 15-1 1-1 15-1 1-1 14-1 3-3 27-3 24-1 2-1 14-1 3-1 13-1 1-1 16-1 2h11l6-3 4-4 5-9 3-3 3-9 5-14 4-16 1-10 1-2 1-19 1-1v-37l-1-1-1-13-4-10-5-5-4-2z" fill="#F23F48"/>
<path transform="translate(1289,4)" d="m0 0h99l1 1 9 1 7 3 9 3 3 3 5 3 9 9 5 11 2 4v24l-5 12-5 9-9 9-9 5-12 5h-3v2l6 1 9 5 7 5 3 5 3 3 4 10v10h2v21l-4 16-5 9-6 8-10 10-11 6-8 4-12 4h-9v2l-102 1h-3l2-10 1-11 1-2 1-15 1-1 1-15 1-1 1-13 1-2 1-14 1-2 1-13 1-1 1-15 1-1 1-15 1-2 1-13 1-1 1-15 1-1 1-15 1-1 1-13 1-2 1-15 1-1 1-13zm67 28-4 3-1 15-1 1-1 14-1 3-2 16-1 9h3l11-1 9-6 6-9 2-6v-26l-4-6-4-4-7-1zm-14 89-1 1-1 9-1 3-1 11-1 1-1 15-1 1-1 14-1 1-1 13-1 1v7h12l9-4 4-4v-2h2l6-11 1-7 1-1v-30l-6-12-4-4-9-2z" fill="#313336"/>
<path transform="translate(932,245)" d="m0 0h26l15 3 12 5 10 7 10 10 7 15 2 5v26l-1 1h-54l-1-1-1-24-4-9-4-4h-14l-6 3-2 5-1 7-1 1 1 7 2 9 7 8 3 3 5 3 16 9 11 6 10 7 9 7 4 5 6 9 4 9 1 7 2 5v22l-2 14-5 13-5 9-4 4-3 5-8 6-9 6-10 5-15 4-13 2h-19l-14-3-16-6-6-4-9-7-8-9-6-11-2-6-1-7-1-1v-22h59l1 28 6 10 6 4h11l5-3h2l2-5 2-9 1-1-1-7-2-8-6-9v-2l-5-1-4-4-9-5-14-8-12-8-8-6-6-7-6-8-4-8-4-14v-28l1-1 2-9 4-10 5-9 16-16 17-9 15-4z" fill="#F2414B"/>
<path transform="translate(1526)" d="m0 0h39v2h7l12 5 8 5 10 9 7 9 5 13 2 7v21l-56 1-2-4v-19l-3-10-5-5h-14l-6 4-3 5v18l5 9 7 7 5 3 17 9 6 4 8 4 4 4 5 3 11 11 8 14 3 9v6l2 2v19l-2 13-5 12-5 9-6 8-10 10-5 3-6 4-12 5-7 2-9 1-1 1h-30l-16-4-12-5-8-6-7-5-4-6-5-8-4-8-2-6-1-13-1-4 1-1 1-9 22-1h36v3 21l5 11 3 5 4 2h12l6-3h2l1-4 2-4v-16l-3-7-6-8-3-3-5-3-6-4-13-7-6-4-5-3-6-4-17-17-7-14-2-6-1-8-1-1v-18l3-12 3-10 7-13 9-10 6-5 10-7 10-4 6-2 7-1z" fill="#303235"/>
<path transform="translate(1055,250)" d="m0 0h102l5 1 9 2 12 4 10 7 3 2v2l4 2 6 11 2 6 1 9 1 1v20l-1 1-1 11-5 12-7 12-7 7-5 3-5 4-12 5-14 4-16 2h-27l-1-1-1 7-1 1-1 15-1 1-1 16-1 1-1 17-1 1-1 15-1 1-1 17-2 3-67 1-1-1v-11l1-1 1-15 1-1 1-15 1-2 1-15 1-1 1-17 1-1 1-15 1-2 1-14 1-2 1-14 1-2 1-13 2-7 1-13 1-2 1-14 1-2 1-15 1-1 1-15 1-1zm66 32-3 3v18h-2l-1 16-1 1-1 15-1 1v10h9l1-1 9-1 8-5 4-5 4-10 2-8v-13l-1-1-2-10-4-6-9-4z" fill="#F23E48"/>
<path transform="translate(661,71)" d="m0 0 7 6 11 11 6 4 7 9 12 12 10 14 8 11 10 15 14 27 1 4-10 7-18 11-14 9-20 13-18 11-8 5-15 10-10 6-12 8-10 6-17 11-6 3h-3l-10-24-10-20-12-19-4-5-7-8 1-4 14-14 3-5 9-9 3-5 11-11 4-6 8-8 4-6 10-10 4-6 10-10 6-8 8-9 21-24z" fill="#F68186"/>
<path transform="translate(758,217)" d="m0 0 4 1 5 17 3 9 1 7 1 1 1 9 1 1v10h2l1 12 1 1 1 13 1 1v20h2v43l-15 4-25 5-21 5-16 3-27 6-28 6-26 6-15 3-9 1-1-47-1-1-1-17-1-1v-14l13-8 55-35 13-8 20-13 18-11 20-13 13-8 8-6z" fill="#F4656C"/>
<path transform="translate(1135,4)" d="m0 0h120l-1 3-1 13-1 1-1 16h-51v5l-1 1-1 16-1 1-1 17-1 1-1 12h41v10h-2v16l-3 7h-41l-1 17-1 1-1 16-1 1-1 17-1 1-1 14-1 3 53 1 1 3-1 2-1 17-1 1-1 10h-123v-9l1-2 1-15 1-1 1-15 1-1 1-15 1-2 1-15 1-1 1-15 1-1 1-17 1-2 1-14 1-2 1-14 1-2 1-14 1-3 3-28 2-8 1-13 1-1z" fill="#333537"/>
<path transform="translate(1930,4)" d="m0 0h118v18l-1 1-1 13-1 1h-50l-1 6-1 16-1 2-1 14-2 14 40 1 1 3-3 25-2 5-41 1-1 6-1 13-1 3-1 13-1 1-1 16-1 1-1 17h53l1 2-2 12-1 11-1 1-1 7-120 1-2 1v-12l1-1 1-15 1-2 1-15 1-1 1-15 1-1 1-15 1-2 1-15 1-1 1-15 1-1 1-15 1-1 1-15 1-2 1-17 1-1 1-15 1-1 1-15 1-2 1-15 1-1 1-13z" fill="#2F3033"/>
<path transform="translate(1397,250)" d="m0 0h118v8l-1 5-1 9-1 1-1 9h-51v12l-1 1-1 16h-2v18l-2 6h40l1 1v15l-1 1-1 16h-43v8l-1 1-1 15-1 1-1 15-1 1-1 18-1 1-1 12h53v12h-2v16l-2 4-119 1-4-1 1-4 1-15 1-1 1-15 1-2 1-14 1-2 1-15 1-1 1-15 1-2 1-16 1-2 1-14 1-2 1-13 3-20 1-8 2-11 1-13 1-2 1-15 1-1 1-15z" fill="#F2424B"/>
<path transform="translate(1245,250)" d="m0 0h119v11l-1 1-1 14h-2v6h-51v15l-3 20-2 17 2 1h21l19 1-2 10-1 12-1 3-1 7-42 1-1 11-1 4-1 15-1 1-1 15-1 1-1 15-2 9h53l1 2-1 14-1 3-1 13-121 1-2-1 1-14 1-1 1-15 1-2 1-16 1-2 1-15 1-1 1-15 1-1 1-15 1-2 1-15 1-1 1-15 1-1 1-15 1-1 1-15 1-2 1-15 1-1 1-17 1-1 1-15z" fill="#F23F48"/>
<path transform="translate(1729,250)" d="m0 0h71l2 6 1 9 1 1v10h2l1 10 1 1 1 9 1 1 1 9 1 1 1 7 1 1 1 9 1 1 1 13 4-4 5-12 14-28 4-10 14-28 2-6h33l-9 19-23 46-5 12-26 52-1 7-1 1-1 15-1 1-1 15-1 2-1 14-1 2-1 13-1 3-1 14-2 6-64 1-4-1v-9l1-1 1-15 1-2 1-14 1-2 1-15 1-1 1-15 1-2v-17l-3-10-3-16-1-2-1-9-3-9-1-9-3-9-10-45z" fill="#F2424C"/>
<path transform="translate(1756,4)" d="m0 0h146l1 1-1 15-2 17-40 1-4 29-1 9-1 2-1 14-1 5-1 11-1 1-1 16-1 1-1 15-1 1-1 15-1 1-1 16h-2v16l-1 1-1 15-1 1-1 18-2 2h-67l-1-1v-7l1-2 1-14 2-7v-7l2-8 1-13 1-3 1-16 1-1 1-15 1-1 1-15 1-2 1-14 1-2 1-17 1-1 1-15 1-1 1-15 1-2 1-11h-39v-14l1-1 1-15z" fill="#343639"/>
<path transform="translate(773,399)" d="m0 0h7v20l-1 1-1 15-1 1-1 14-1 1-1 11-1 1-1 11-1 1-1 9-1 1-1 9-2 9-28 1-1 1h-104v2h-47l3-13 1-9 1-1 1-11 1-1 1-11 1-2 1-12 2-9 7-1 7-2 39-9 37-8 21-5 9-2 9-1 1-1 7-1 1-1 9-1 1-1 17-3 1-1z" fill="#F5535A"/>
<path transform="translate(1657,4)" d="m0 0h69v6l-1 1-1 15-1 1-1 16-1 1-1 15-1 1-1 18h-2v16l-1 1-1 15-1 1-1 18h-2v16l-1 1-1 15-1 1-1 15-1 1-1 18-1 1-1 15-1 1-1 14h-68v2h-2v-9l1-1 1-15 1-2 1-14 1-2 1-15 1-1 1-15 1-2 1-15 2-10 1-9 1-4 1-13 1-2 1-14 1-2 1-14 1-2 1-15 1-1 1-15 1-1 1-15 1-1z" fill="#2E3033"/>
<path transform="translate(418,4)" d="m0 0h57v8l-1 1-1 9-1 1-1 9-1 1-1 9-1 1-1 7-1 1-1 10-1 1-1 9-1 1-1 9-1 1-1 9-1 1-1 9-1 1-3 16-2 5-1 8-2 4-6-1-28-7-17-3-52-1-3-7-1-9-1-1-1-9-1-1-3-18-5-25-3-19-2-6 3-5 16-5 12-3 18-4 2-1 11-1 1-1 11-1 1-1 17-1z" fill="#F9A0A4"/>
<path transform="translate(744,538)" d="m0 0h12l-2 10-6 20-12 35-6 18-1 1h-178l7-21 4-10 9-29 6-19 1-1 60-1 2-1 103-1z" fill="#F2434C"/>
<path transform="translate(678,22)" d="m0 0 2 1v5l-8 12-4 5-7 8-5 5-3 5-13 13-3 5-15 15-3 5-16 16-3 5-17 17-3 5-16 16-3 5-17 17-3 5-18 18-3 5-17 17-3 5-17 17-4 6-17 17-3 6-4 1-5 4-9 11-7 7-7 8-10 11h-2l-2 4-1 4 4 12-1 4-4-13-5 3-8 8-3 6h-2v2h-2v2h-2l-1 5-2 6-1 7-4 10-10 10-10 5h-15v-2h-5l-3-3-5-3-7-7-5-10-2-10 4-12 7-8 8-5 4-2 14-3 7-3 25-25v-2l4-1 9-6h2v-2l8-7 18-18 6-7h2v-5l-6-5-2-1 1-2 6 4 4 3 2-5 9-9 11-8 145-145 6-4 49-49z" fill="#F2454E"/>
<path transform="translate(506,8)" d="m0 0h11l1 1 9 1 36 10 12 5 13 4 13 7 9 3 13 7-1 5-49 49-4 6-58 58-2 4-5-1-12-9-5-3-6-4-8-4v-5l1-1 3-15 5-18 16-65 5-18 2-8z" fill="#F68288"/>
<path transform="translate(291,37)" d="m0 0h6l1 10 1 1 1 7 1 1 1 7 3 7 1 7 1 1 1 7 1 1 1 7 1 1 2 9 4 14v9l-13 3-15 3-20 6-16 6-12 5-36 18-8 5h-2l-6-11-21-35-2-4v-5l9-7 7-7 6-4 6-5 8-6 20-14 21-13 18-10 20-10z" fill="#FDB3B7"/>
<path transform="translate(140,143)" d="m0 0 4 1 15 22 4 5 7 10 3 5v3l-5 3h-2v2l-8 6-5 4-8 7-37 37h-2l-2 5-9 10-4 6-7 9-6 8-8 12-18 30-4 8-6 10-5 13-7 14-10 26-11 32-3 15-1 1-1 9-4 2v-14l1-1 3-22 3-13 3-15 9-35 14-42 10-25 7-15 9-19 9-16 8-14 14-22 6-8 8-12 4-5 7-8 4-6 9-9 3-5z" fill="#FEC9CB"/>
<path transform="translate(456,277)" d="m0 0 5 2 10 19 4 8 4 12 1 14v2h1l-1 9-1 2h-2l-1 8-2 9-5 5-6 4-6 2-9 2h-13v-2l-3 1-4-3v-2h-2v-3h-2v-2h-2l-2 4-1-14-3-5-2-13-3-9 4-7 5-4 7-8 14-15 9-11z" fill="#DE3C4F"/>
<path transform="translate(398,237)" d="m0 0 8 1 13 7 5 2 3-2 2 1v2l5 2 4 4-1 5h-2l-2 4-3 1-2 4-23 23h-2v2l-12 8-5-2-2-4-10-6-18-7-4-3-6-4 3-9 11-9 14-11 5-4 13-4z" fill="#DE3A4E"/>
<path transform="translate(952,519)" d="m0 0h32l8 5 3 4 1 8-4 8-6 5-5 1v2l4 1 5 5 2 3v13l-4 8-9 6-7 2h-31l2-17 8-53z" fill="#FEFBFA"/>
<path transform="translate(1221,535)" d="m0 0h7l8 4 5 6 1 2 2-11h9l1 2-5 35-2 17h-9l-1-2 1-9-7 8-8 4h-12l-7-4-4-6-2-8v-9l3-12 6-9 6-5z" fill="#FEFBFB"/>
<path transform="translate(178,401)" d="m0 0h24l3 8 4 16h-17l-26-2-7-1-18-1-4-1-22-1-6-1-19-1-1-1-30-1-1-1-9-1 1-4h38v-2l30-1 1-1 28-1 1-1h30z" fill="#F3525B"/>
<path transform="translate(1114,519)" d="m0 0h11l4 16 8 41 3-4 14-29 11-23 1-1h11l-2 18-7 50-1 3h-10l3-24 4-30-19 39-7 14-1 1h-7l-3-9-8-40v-7h-2l-1 14-6 41-5 1v-9l8-57z" fill="#FEFBFA"/>
<path transform="translate(869,493)" d="m0 0h945l-2 4v-2h-943l-3 26-3 23h-1v-15l1-2 1-14 1-2 1-12z" fill="#FEFDFC"/>
<path transform="translate(1427,519)" d="m0 0h32l9 4 4 6 1 9-3 8-4 5-8 4-5 1h-22v8l-4 26h-10l2-18 7-49z" fill="#FEFBFB"/>
<path transform="translate(203,311)" d="m0 0 4 1-1 1-1 7-1 1-1 11-2 3h-17l-2-1-20-1-23-2-4-1-18-1-1-1-22-1v-2h-20v-4l24-1 1-1 25-1 1-1 24-1 1-1h26v-2l26-1z" fill="#F34C55"/>
<path transform="translate(1566,535)" d="m0 0h10l7 3 5 5 4 8v10l-1 2h-39l1 12 4 8 3 2h11l5-3 6-12h7l1 2-3 8-6 7-9 4-9 1-10-3-7-6-4-11v-10l3-10 4-6 5-5 8-5z" fill="#FEFBFB"/>
<path transform="translate(1356,516)" d="m0 0h8l1 5-6 44 7-7 8-7 13-13 3-2h5v3l-8 7-11 10 9 19 7 15h-10l-6-10-8-16-8 7-2 2-3 16-1 1h-9l3-24 7-49z" fill="#FEFBFA"/>
<path transform="translate(1286,516)" d="m0 0h8l1 5-6 44 16-15 12-12 3-2h5v3l-8 7-11 10 9 19 7 13v2h-10l-10-19-4-7-8 7-2 2-3 17h-10l3-23 7-50z" fill="#FEFBFA"/>
<path transform="translate(1224,541)" d="m0 0h8l7 6 2 6v8l-3 12-6 9-8 4-8-1-5-4-2-4-1-10 2-11 4-8 7-6z" fill="#383638"/>
<path transform="translate(1797,608)" d="m0 0h1v14h-716v-1l402-1h312z" fill="#FEF4F3"/>
<path transform="translate(1696,535)" d="m0 0h13l8 4 4 5 1 2v6l-1 1h-7l-2-9-6-3h-9l-6 4v6l1 3 6 2 13 5 6 4 3 5v10l-6 8-7 3-10 1-9-2-6-4-4-6v-7l1-1h6l2 7 2 4 4 2h12l5-3 1-7-5-5-16-6-7-6-1-3v-9l4-6 7-4z" fill="#FEFBFA"/>
<path transform="translate(1631,535)" d="m0 0h13l8 4 4 5 1 2v6l-1 1h-7l-2-8-3-3-3-1h-9l-6 4v6l4 4 15 6 6 4 4 5v10l-6 8-7 3-10 1-12-3-6-7-1-2v-7l2-1 6 1 2 9 5 3h12l5-3 1-7-5-5-16-6-7-6-1-2v-10l4-6 6-4z" fill="#FEFBFA"/>
<path transform="translate(1018,536)" d="m0 0h9l3 8 8 31 1 2 15-26 8-13 2-2h4l-2 6-16 27-14 24-10 17h-6l6-11 5-8-1-8-12-44z" fill="#FEFBFA"/>
<path transform="translate(957,553)" d="m0 0 17 1 6 4 3 7-1 10-3 5-6 4-4 1h-17l1-13 3-18z" fill="#373537"/>
<path transform="translate(869,4)" d="m0 0h65v33h2v104h2l-1 6-2 2-1-27-1-78v-38h-63l1 22 4 166v32h-1l-1-19-1-3-1-81-1-2-1-82-1-1v-33z" fill="#FEFBFA"/>
<path transform="translate(1436,524)" d="m0 0h18l5 2 3 3 1 3v8l-3 6-6 4-5 1h-16v-8z" fill="#373537"/>
<path transform="translate(1526,535)" d="m0 0h2v7l-2 2-9 3-6 5-5 10-3 14-2 13-1 1h-9l2-18 5-35 5-1 5 1-1 15 8-11 8-5z" fill="#FEFBFB"/>
<path transform="translate(961,524)" d="m0 0h18l5 3 2 4v7l-3 6-6 4-4 1h-16l3-24z" fill="#373537"/>
<path transform="translate(1567,540)" d="m0 0h8l6 4 2 4v11h-30l1-6 3-6 7-6z" fill="#373537"/>
<path transform="translate(1644,115)" d="m0 0h1l-1 15-10 82v9h7l3 3h41l5-3 5 1v3l3 1 1-14 4-33h1v17l-1 1-1 15-1 1-1 14h-68v2h-2v-9l1-1 1-15 1-2 1-14 1-2 1-15 1-1 1-15 1-2 1-15 2-10 1-9z" fill="#C2BDBD"/>
<path transform="translate(1931,6)" d="m0 0h117v16l-3 1v2l-3-1-1-10-2-2-22-2-38-1h-44l-2 2-2 4z" fill="#2C2C2F"/>
<path transform="translate(1899,5)" d="m0 0 3 1-1 12-2 2-4-9-28-2h-107l-3 2-1 5h-1v-10z" fill="#222225"/>
<path transform="translate(1467,53)" d="m0 0h1l-1 11v19l3 1v4l3 1 1 6 4 9 5 8v2h2v2l4 2 5 5v2h3v2h2l3 3-1 2 2 3-4-1-8-6-16-16-7-14-2-6-1-8-1-1v-18z" fill="#706C6E"/>
<path transform="translate(1250,5)" d="m0 0h3l-1 12-2 3-2-7-2-2-20-1-26-1-58-1-5 1v-3z" fill="#222225"/>
<path transform="translate(975,4)" d="m0 0h69l1 1v134l-1 2h2l1-4-1 9-2 5h-1v-145h-67l-2 7h-1v-6z" fill="#FEC6C9"/>
<path transform="translate(1568,532)" d="m0 0h6l12 6 3 2v2h2l2 4 1 12-2 2-2-12-5-8-5-3-4-1h-10l-10 4-4 2-2 4-5 8-2 8v10l4 11 6 5 10 3 12-2 6-2v2l-7 4h-17l-8-4-8-9-2-8 1-13 3-8 1-3h2l1-4 4-5 12-6z" fill="#2A2B2D"/>
<path transform="translate(870,6)" d="m0 0h63l-1 7-4-1-3-2h-24l-19-1-6 1-2 6v20l-1 11h-1l-1-5-1-14z" fill="#232326"/>
<path transform="translate(1223,532)" d="m0 0 7 2v1l-13 2-8 5-6 8-3 8-1 6v9l3 10 5 5 4 2h12l8-4 7-8 1 2-1 11-7-2-7 4h-14l-8-5-1-3h-2l-4-11v-10l2-10 6-12 7-6 7-3z" fill="#292A2D"/>
<path transform="translate(1930,4)" d="m0 0h118v2h-117l-1 13-4 32h-1v-15l1-2 1-15 1-1 1-13z" fill="#FEFDFC"/>
<path transform="translate(870,70)" d="m0 0h2l3 124v32h-1l-1-19-1-3-1-81-1-2z" fill="#FEF7F7"/>
<path transform="translate(2045,23)" d="m0 0h1v13l-1 1h-50l-1 6-1 16-1 2-1 14-2 14 40 1 1 3-3 25-2 2 1-14 2-14h-41l1-16 5-40h51z" fill="#FEF8F8"/>
<path transform="translate(976,5)" d="m0 0 67 1-1 48-2-4v-36l-3-4-16-1-39-1-6 1-2 11-2 2 1-9z" fill="#222225"/>
<path transform="translate(1474,157)" d="m0 0h36v3l-57-1v2l3 1 2 6v29l-3-4-3-8-1-13-1-4 1-1 1-9z" fill="#605D5F"/>
<path transform="translate(1224,541)" d="m0 0h8l7 6 2 6v8l-3 12-6 9-3 2-3-1h2l1-3h2v-2h2l2-5 3-8 1-13h-2l-1-5h-2v-2h-11l-7 6-4 8-1 5v8l3 7 5 4 6 1-1 2-8-1-5-4-2-4-1-10 2-11 4-8 7-6z" fill="#2B2B2E"/>
<path transform="translate(1289,4)" d="m0 0h99l1 1 9 1 1 2-11-1-98-1-1 12h-1v-13z" fill="#FEFDFC"/>
<path transform="translate(1771,197)" d="m0 0h1l-1 15-2 14 2-1 1-3 4-1 5 3h38l5-2h5v3l2 2h-63l-1-1v-7l1-2 1-14z" fill="#383638"/>
<path transform="translate(1354,516)" d="m0 0h1v8l-9 63-2 2-1-1 1-15 3-24 3-22z" fill="#2B2D2F"/>
<path transform="translate(40,346)" d="m0 0 1 3-6 14-7 15-9 24-10 29-3 15-1 1-1 9-4 2v-14l2-1v4l12-39 10-26 11-25z" fill="#FEFEFD"/>
<path transform="translate(1283,520)" d="m0 0h1v11l-8 56-2 2-1-8 5-38 2-15z" fill="#2B2C2F"/>
<path transform="translate(955,284)" d="m0 0 2 1 3 12v18h53l-1-18-1-12 2 3 1 2v26l-1 1h-54l-1-1-1-24z" fill="#FDD3D5"/>
<path transform="translate(1185,141)" d="m0 0h1v16l-1 1-1 17-1 1-1 14-1 3 53 1 1 3-2 2v-3h-54l1-14z" fill="#FEFDFC"/>
<path transform="translate(203,311)" d="m0 0 4 1-1 1-1 7-1 1-1 11-2 3h-17l-2-1-20-1-23-2-4-1-18-1-1-1-22-1v-2h12l34 3 18 2 26 2 4 1h12l2-13 2-7-2-1z" fill="#FBBCBE"/>
<path transform="translate(744,538)" d="m0 0h12l-1 6-1-4-9 1-48 1h-59l2-2 103-1z" fill="#FCDDDE"/>
<path transform="translate(1526)" d="m0 0h39v2h7l12 5 8 5h-3l-13-6-6-2h-53l1-2 7-1z" fill="#959191"/>
<path transform="translate(1177,518)" d="m0 0 2 1-1 18-1 3-1 13-1 3-1 11-1 3-1 12-3 7h-1v-9l8-57z" fill="#2A2A2D"/>
<path transform="translate(1425,520)" d="m0 0h1v9l-8 57-2 2-1-9 2-10v-10l2-11 2-16z" fill="#2B2C2F"/>
<path transform="translate(1046,324)" d="m0 0 1 4-2 19-1 3-2 22-3 22-3 30-3 20h-1v-15l1-2 1-15 1-1 1-17 1-1 1-15 1-2 1-14 1-2 1-14 1-2 1-13z" fill="#FCD5D7"/>
<path transform="translate(1501,226)" d="m0 0h12l8 2 13 1v2h7l-1 2h-30l-12-3z" fill="#716B6D"/>
<path transform="translate(949,523)" d="m0 0h1v10l-8 53-2 2-1-7 2-12 2-15 3-22z" fill="#2B2C2F"/>
<path transform="translate(1308,282)" d="m0 0h1v15l-3 20-2 17 2 1h21l19 1-2 10-1 12-2 1 2-22h-41l2-27z" fill="#FDE4E5"/>
<path transform="translate(1975,180)" d="m0 0h1v14h53l1 2-2 12-1 11-2 1 1-15 1-8-53-1z" fill="#FEFBFB"/>
<path transform="translate(1660,5)" d="m0 0h64v8l-2 1v-2l-4-1-1-1-15-1-27-1-13-1v2h-2l-1 2v-5z" fill="#232325"/>
<path transform="translate(975,4)" d="m0 0h69l1 1v15h-1l-1-14h-67l-2 7h-1v-6z" fill="#FEFDFC"/>
<path transform="translate(599,319)" d="m0 0 2 1-3 4v8l2 8 2 27v33l11-3 4 1-11 3h-6l-1-47-1-1-1-17-1-1v-14z" fill="#FDE0E1"/>
<path transform="translate(1325,538)" d="m0 0v3h-2l-2 4-4 2v2h-2v2l-4 4h-2l2 9 2 1v3h2l3 5v3h2l3 7v6l-4-4-14-28 6-7 8-7z" fill="#2B2B2E"/>
<path transform="translate(1126,519)" d="m0 0 2 2 3 8 3 19 1 5 2 15 4 1-1 5-3 4-3-13-8-40z" fill="#2B2C2F"/>
<path transform="translate(1657,4)" d="m0 0h69v6l-2 1v-6l-3 1h-61l-2 11h-1z" fill="#FEFCFB"/>
<path transform="translate(1217,116)" d="m0 0h6l2 3h-2v2h7l1-4v5l-1 1h-41l-1 17-2 1v-9l2-10 24-1-6-1 2-1 1-2z" fill="#979595"/>
<path transform="translate(1050,213)" d="m0 0h1l-1 8-2 6h-59v-1l34-1 9-3 8-2 4 2v4h3l2-10z" fill="#878586"/>
<path transform="translate(1223,532)" d="m0 0 7 2v1l-13 2-8 5-6 8-3 8-1 6h-2l-1 3-1-3 2-10 6-12 7-6 7-3z" fill="#292A2D"/>
<path transform="translate(1389,543)" d="m0 0 1 3-9 9-1 4 6 12 6 10 1 8h-2l-16-32 6-7z" fill="#2A2B2E"/>
<path transform="translate(2017,196)" d="m0 0h11l-2 18-2 2-1-16-44-1-1-2z" fill="#232326"/>
<path transform="translate(1633,532)" d="m0 0h8l10 5-2 1-5-2h-13l-8 3-4 5-1 2v10l4 5 12 6-3 1-10-5-5-6-2-4v-7l3-6h2v-2l10-5z" fill="#2B2C2F"/>
<path transform="translate(1552,564)" d="m0 0h34v1l-31 1v7l3 7 5 3 8-1 6-4 3-4-1 5-5 5-3 2h-11l-5-4-3-7z" fill="#292A2D"/>
<path transform="translate(767,485)" d="m0 0h1v9l-2 9-28 1-1 1h-48l3-2 72-2z" fill="#FABFC1"/>
<path transform="translate(957,553)" d="m0 0 17 1 6 4 2 3v8l-2-4-4-6-2-2h-13l-3 4-2 13-1 2v9h-3l1-13 3-18z" fill="#2A2B2E"/>
<path transform="translate(1164,534)" d="m0 0 1 4-3 17-2 1v-2l-4 2-4 8-3 8-6 12h-2l3-9 13-26z" fill="#2A2A2D"/>
<path transform="translate(941,218)" d="m0 0h1v6l-2 3h-65l4-2 54-1 6 1z" fill="#9F9E9E"/>
<path transform="translate(773,399)" d="m0 0h7v20l-2 1v-7l-4-1-4-8-1-1h-6l1-2z" fill="#F78A8F"/>
<path transform="translate(1097,452)" d="m0 0h1v17l-2 3-67 1-1-1v-11l2-1v11h65z" fill="#F8A0A4"/>
<path transform="translate(125,364)" d="m0 0h23v1l-18 1-4 1 13 3 12 1v1h-14l-5-1-23-1v-4h16z" fill="#FBBDBF"/>
<path transform="translate(1526,535)" d="m0 0h2v7l-2 2-9 3-6 5-3 3v-4l7-10 8-5zm-21 19 2 1-2 1z" fill="#FBF7F6"/>
<path transform="translate(1289,436)" d="m0 0 1 4h53l1 2-1 14-2 1 1-15h-53z" fill="#FABCBF"/>
<path transform="translate(1698,532)" d="m0 0h7l6 2v1l-15 1-9 4-4 6v9l3 5 6 4 7 3-3 1-10-5-6-7v-11l3-5h2v-2l9-5z" fill="#28292C"/>
<path transform="translate(870,70)" d="m0 0h2l1 42v25h-1l-1-14-1-2z" fill="#FEF5F5"/>
<path transform="translate(1545,264)" d="m0 0h1v10l-5 40-1 3-3 29h-1v-16l1-1 1-15 1-1 1-15 1-2 1-15 1-1 1-15z" fill="#FCD9DA"/>
<path transform="translate(1020,535)" d="m0 0h8l4 6 4 16 1 7 2 4 3 3-1 4-3 3-11-41-7-1z" fill="#2C2D30"/>
<path transform="translate(1523,534)" d="m0 0h5l-2 2-8 4-5 5-6 9h-1l1-17h-8l-2 1 1-3h10l1 3 7-1z" fill="#2B2C2F"/>
<path transform="translate(1053,562)" d="m0 0 3 1-3 6h-2l-1 4-6 11-5 9h-2l-2 5-4 8-4 3 2-6 16-27z" fill="#2A2B2E"/>
<path transform="translate(1431,556)" d="m0 0h24l-1 2-17 1-2 1-3 11v8l-3 7h-1l1-15z" fill="#28292C"/>
<path transform="translate(1163,519)" d="m0 0h2l-1 5-15 31-2 1 4-16 8-15 3-5z" fill="#2B2D30"/>
<path transform="translate(50,409)" d="m0 0h35v1l-17 2 6 2v1h-15l-1-1-9-1z" fill="#FDEDED"/>
<path transform="translate(1295,519)" d="m0 0 2 4-1 8-2 15-1 1v9l3 2v2l-8 6 3-24 3-21z" fill="#29292C"/>
<path transform="translate(602,37)" d="m0 0 5 1 16 8-1 5-20 20v-3l12-12v-7h2v-4l-14-7z" fill="#FCD0D2"/>
<path transform="translate(89,415)" d="m0 0h15l21 2 30 2 6 1-2 2-18-1-4-1-22-1-6-1-19-1z" fill="#FBC7C9"/>
<path transform="translate(1193,78)" d="m0 0h1v12h41v10h-2v-8h-41z" fill="#FEF3F3"/>
<path transform="translate(1496,541)" d="m0 0h1v9l-5 36-2 4-1-5v-7l2-13 2-9 1-9z" fill="#2C2D30"/>
<path transform="translate(476,132)" d="m0 0h1v7l3-1 3 3-1 8 8 6 4 2-2 1-5-3-6-4-8-4v-5l1-1z" fill="#FBBBBE"/>
<path transform="translate(1298,563)" d="m0 0 3 4 11 22-1 2-7-11-4-9v-2l-4-1-5 5-2 5-2 10h-1v-9l2-7 8-8z" fill="#2C2C2F"/>
<path transform="translate(1631,219)" d="m0 0h2l1 2h7l4 4 28 1v1h-41v2h-2v-9z" fill="#9D9C9C"/>
<path transform="translate(935,84)" d="m0 0h1v57h2l-1 6-2 2-1-27v-37z" fill="#FEFCFB"/>
<path transform="translate(1568,532)" d="m0 0h6l12 6 3 2v2h2l2 4 1 12-2 2-2-12-5-8-5-3-4-1h-10l-9 2 1-3z" fill="#28282B"/>
<path transform="translate(146,207)" d="m0 0 2 1-40 40-2-1 12-13 17-17 8-7z" fill="#FEFEFD"/>
<path transform="translate(1082,4)" d="m0 0h28l-2 12-3 7-1-4 4-14-2 1h-22l-4 13-2 7h-1l1-8 3-13z" fill="#FEFCFB"/>
<path transform="translate(1368,563)" d="m0 0 3 4 8 17-1 3-3-5-5-11v-2l-6-1v2h-2l-2 6-3 11h-1v-9l2-6 8-8z" fill="#2B2C2E"/>
<path transform="translate(589,494)" d="m0 0 1 4-1 7h44v2h-47z" fill="#FBC8CA"/>
<path transform="translate(1635,568)" d="m0 0 6 1 5 4 1 7-4 5-3 1h-12l-6-4-1-2v-8l2 1 3 8 4 2v2l9-2 5-3-1-6-8-5z" fill="#2B2C2F"/>
<path transform="translate(1541,570)" d="m0 0 2 2 4 11 6 5 10 3 12-2 6-2v2l-7 4h-17l-8-4-8-9z" fill="#28292B"/>
<path transform="translate(1017,538)" d="m0 0 2 1 12 44v5l-3-4-3-12-3-9-3-13-3-8z" fill="#2C2D30"/>
<path transform="translate(778,298)" d="m0 0 2 1v20h2v43h-5l4-1-2-39-1-11z" fill="#FBC0C3"/>
<path transform="translate(868,7)" d="m0 0h2l1 21v42h-1l-1-31-1-1z" fill="#FEF8F7"/>
<path transform="translate(933,37)" d="m0 0h3v47l-2 1z" fill="#FEF8F7"/>
<path transform="translate(1700,568)" d="m0 0 6 1 5 4 1 7-4 5-3 1h-12l-6-4v-9h1l2 7 5 4h7l6-3 1-4-5-6z" fill="#2A2B2D"/>
<path transform="translate(1700,309)" d="m0 0 2 1 1 9 1 1v54l-1 1-1 9-2 1 1-12 1-3v-40l-2-15z" fill="#FDCCCE"/>
<path transform="translate(1824,222)" d="m0 0h5v3l2 2h-53v-1l27-1 14-1z" fill="#727071"/>
<path transform="translate(1790,493)" d="m0 0h24l-2 4v-2h-69v-1z" fill="#FEE1E2"/>
<path transform="translate(1632,540)" d="m0 0h9l6 3-1 2-3-2h-11l-3 2v6l8 5 7 3-3 1-11-4-5-5v-6l5-4z" fill="#2B2B2E"/>
<path transform="translate(278,245)" d="m0 0 2 1-11 12-13 13-5 6v-3l11-14 11-11z" fill="#F89EA2"/>
<path transform="translate(1453,159)" d="m0 0h56v18l-2-1-1-13 1-2h-54z" fill="#373537"/>
<path transform="translate(1234,544)" d="m0 0 4 2 3 7v8l-3 12-6 9-3 2-3-1h2l1-3h2v-2h2l2-5 3-8 1-13h-2l-1-5h-2z" fill="#2D2E31"/>
<path transform="translate(961,524)" d="m0 0h18l5 3 1 1v6l-4-5-2-2-6-1h-8l-2 1-3 17v4h-2v-9l2-14z" fill="#2C2D30"/>
<path transform="translate(416,237)" d="m0 0 5 2 8 6-3 1-2 2-14-7-3-2h8z" fill="#F5646B"/>
<path transform="translate(1427,147)" d="m0 0h2v21l-4 16-5 9-2 1 2-5 2-4 1-8 3-11 1-2z" fill="#C3C0C0"/>
<path transform="translate(2e3 90)" d="m0 0h26l1 3-3 25-2 2 1-14 2-14h-25z" fill="#FEFEFD"/>
<path transform="translate(1356,515)" d="m0 0h9l2 2-1 15-1 3-1 12-3 2 1-15 2-17h-7z" fill="#2B2C2F"/>
<path transform="translate(1197,116)" d="m0 0h10l-1 4h7l-1 2h-24v-1h5l2-4z" fill="#363436"/>
<path transform="translate(944,590)" d="m0 0h29v2l-5 1-18 1-8-2z" fill="#292A2D"/>
<path transform="translate(1635,350)" d="m0 0h1v17l-2 7-3 19-4 11-1-4 5-18 1-10 1-2 1-19z" fill="#FCDADB"/>
<path transform="translate(1238,578)" d="m0 0 1 2-1 11-7-2-7 4h-12l1-2 13-2 8-6z" fill="#2A2A2D"/>
<path transform="translate(1474,157)" d="m0 0h36v3l-57-1v6h-1v-7z" fill="#FEFEFD"/>
<path transform="translate(1519,545)" d="m0 0 4 1-8 4-5 6-4 13-1 11-2 6h-1v-10l3-14 5-10 7-6z" fill="#2C2D2F"/>
<path transform="translate(1436,524)" d="m0 0h18l5 2 3 3v6l-2-3-5-5h-17l-2 12h-1v-11z" fill="#2D2D30"/>
<path transform="translate(1347,558)" d="m0 0 2 3-1 12-2 14-2 2-1-1 1-15 2-14z" fill="#2B2C2F"/>
<path transform="translate(1605,144)" d="m0 0 3 2v19l-2 13-5 12-1-3 4-14 1-6z" fill="#FEF8F7"/>
<path transform="translate(1046,324)" d="m0 0 1 4-2 19-1 3-2 22-1 5h-1v-15l1-2 1-14 1-2 1-13z" fill="#FDE4E4"/>
<path transform="translate(1518,141)" d="m0 0 5 2 2 2v2l4-1 7 4 1 7-15-10-5-3z" fill="#5E595A"/>
<path transform="translate(1112,520)" d="m0 0h1v11l-3 21-2 3-1-8 2-13 1-7z" fill="#2C2D30"/>
<path transform="translate(1904,216)" d="m0 0h1l-1 10 2-1 3-6 5 1 1 4 11 1v1l-18 1-5 2v-12z" fill="#656162"/>
<path transform="translate(1611,573)" d="m0 0h1l3 9 5 6 12 3 8 1v1h-15l-8-4-6-6-1-8z" fill="#29292C"/>
<path transform="translate(597,457)" d="m0 0h1v13l-1 1-1 11-2 7-1 4-2 2v-7l4-21z" fill="#F23E48"/>
<path transform="translate(1109,216)" d="m0 0h1v7l-1 3 2-1 1-3 6-1 2 3 16 1v1l-28 1v-9z" fill="#686567"/>
<path transform="translate(1432,31)" d="m0 0 3 4 3 7v24l-4 10-1-3 2-7 1-15-2-12-2-4z" fill="#FEFBFA"/>
<path transform="translate(744,538)" d="m0 0h12l-1 6-1-4-9 1h-41v-1l39-1z" fill="#FBABAF"/>
<path transform="translate(1283,520)" d="m0 0h1v11l-2 14-2 2-1-9 2-13z" fill="#2A2B2E"/>
<path transform="translate(1185,141)" d="m0 0h1v16l-1 1-1 17-1 1-1 10-2 1 1-13z" fill="#FEF8F7"/>
<path transform="translate(2e3 92)" d="m0 0h26l-1 9-2-3-1-3-25-1z" fill="#232326"/>
<path transform="translate(162,553)" d="m0 0 1 4-3 5v24l4 10v3l-4-6-3-10v-5l-1-5 1-2 1-10z" fill="#FBC7C9"/>
<path transform="translate(1314,568)" d="m0 0 4 5v3h2l3 7v6l-4-4-6-12z" fill="#292B2D"/>
<path transform="translate(74,321)" d="m0 0h24v1l-9 1 2 2h-17z" fill="#F6777C"/>
<path transform="translate(599,319)" d="m0 0 2 1-3 4v8l2 8 1 21h-1l-1-7-1-1-1-17-1-1v-14z" fill="#FCD2D4"/>
<path transform="translate(1115,305)" d="m0 0h1v14l-1 1-1 15-1 1-1 10h-1v-13l3-24z" fill="#FABBBD"/>
<path transform="translate(496,160)" d="m0 0 8 1h6l2 2-3 5-5-1-8-6z" fill="#FBBABD"/>
<path transform="translate(1117,534)" d="m0 0h2l2 12v6h-3-2v-13z" fill="#2C2C2F"/>
<path transform="translate(1388,534)" d="m0 0h6l-5 4-8 7-5 5h-2l1-4h2l2-4 6-6h3z" fill="#2A2B2E"/>
<path transform="translate(1276,566)" d="m0 0 2 3-2 18-2 2-1-8 2-14z" fill="#2B2D2F"/>
<path transform="translate(61,410)" d="m0 0h14v1l-7 1 6 2v1h-15l-3-4z" fill="#F9ADB1"/>
<path transform="translate(203,311)" d="m0 0 4 1-1 1-1 7-1 1-1 11-2 3h-17v-1l16-1 2-13 2-7-2-1z" fill="#FCE1E1"/>
<path transform="translate(105,248)" d="m0 0v3l-6 8-5 6-6 8-5 6v-3l12-16z" fill="#FEFEFD"/>
<path transform="translate(1634,299)" d="m0 0 2 4 1 7v35h-1l-1-32-1-1z" fill="#FDE2E3"/>
<path transform="translate(1541,158)" d="m0 0h3v2h2v2h2l1 4-3 1v5l-2-1-2-6-2-2z" fill="#736F71"/>
<path transform="translate(1633,532)" d="m0 0h8l10 5-2 1-5-2h-18v-2z" fill="#292A2C"/>
<path transform="translate(1170,566)" d="m0 0 3 2-1 14-3 7h-1v-9z" fill="#2A2B2E"/>
<path transform="translate(1319,534)" d="m0 0h6l-3 2-8 6-5 5h-2l1-4 4-5 3-2h4z" fill="#292A2D"/>
<path transform="translate(1101,419)" d="m0 0h1v16l-1 1-1 15-2 1v-10z" fill="#FCDDDE"/>
<path transform="translate(1545,264)" d="m0 0h1v10l-3 24h-1v-17l1-1 1-15z" fill="#FCCFD1"/>
<path transform="translate(127,418)" d="m0 0h15l19 2-2 2-18-1-4-1-10-1z" fill="#FAAFB2"/>
<path transform="translate(1084,5)" d="m0 0h24l-1 5-5-1v-2l-16 1-4 4 1-6z" fill="#242427"/>
<path transform="translate(1680,546)" d="m0 0 2 1 2 11 8 6 7 3-3 1-10-5-6-7z" fill="#2D2D30"/>
<path transform="translate(1567,540)" d="m0 0h8l6 4 1 6-4-5-2-2h-9l-6 3h-3l6-5z" fill="#2B2B2E"/>
<path transform="translate(1242,274)" d="m0 0h1v10l-3 24h-1v-15l1-1 1-17z" fill="#FBCCCE"/>
<path transform="translate(1771,197)" d="m0 0h1l-1 15-2 15-2-1v-7l1-2 1-14z" fill="#FEF7F6"/>
<path transform="translate(955,559)" d="m0 0 2 2-1 13-1 2v9h-3l1-13z" fill="#2C2C2F"/>
<path transform="translate(1434,540)" d="m0 0h1l1 8 16 1-3 2h-16v-8z" fill="#2F2F32"/>
<path transform="translate(1579,587)" d="m0 0h2v2l-7 4h-17l-2-2 3-1 8 1 12-3z" fill="#2B2B2E"/>
<path transform="translate(1349,543)" d="m0 0h2v9l-2 9-2-3v-10z" fill="#2A2C2E"/>
<path transform="translate(1582,536)" d="m0 0 7 4v2h2l2 4 1 12-2 2-2-12-5-8-3-2z" fill="#292A2D"/>
<path transform="translate(1676,575)" d="m0 0 2 3 5 8 9 5-4 1-6-3-6-7-1-5z" fill="#2A2A2D"/>
<path transform="translate(1430,564)" d="m0 0 2 2v13l-3 7h-1l1-15z" fill="#2B2B2E"/>
<path transform="translate(1024,561)" d="m0 0 2 4 5 18v5l-3-4-5-20z" fill="#2E2F31"/>
<path transform="translate(1164,534)" d="m0 0 1 4-3 13-1-2-4 2 3-9z" fill="#28272A"/>
<path transform="translate(1035,564)" d="m0 0 4 2v2l3 3-1 4-3 3-3-11z" fill="#2B2C2E"/>
<path transform="translate(1382,566)" d="m0 0 3 3 7 12 1 8h-2l-2-7-7-14z" fill="#2A2C2F"/>
<path transform="translate(1254,541)" d="m0 0h1l-1 19-3 1v-10l2-9z" fill="#292A2D"/>
<path transform="translate(7,425)" d="m0 0h1l-1 9-5 16h-1l1-9 3-14h2z" fill="#FEBBBE"/>
<path transform="translate(1418,569)" d="m0 0h2l-2 17-2 2-1-9 2-9z" fill="#2C2D30"/>
<path transform="translate(1468,523)" d="m0 0 4 2 3 5v10l-2 5h-2l1-13z" fill="#2A2A2D"/>
<path transform="translate(1106,377)" d="m0 0h2v7l-1 1-1 15-2 1v-10l1-12z" fill="#FBCFD1"/>
<path transform="translate(1687,573)" d="m0 0h1l2 7 5 4h7l3-1v3h-12l-6-4z" fill="#2A2C2F"/>
<path transform="translate(1238,565)" d="m0 0h1v6l-6 10-4 3-3-1h2l1-3h2v-2h2l2-5z" fill="#2B2C2F"/>
<path transform="translate(1360,552)" d="m0 0 2 4 5 1-6 7-3 2z" fill="#27282B"/>
<path transform="translate(2028,90)" d="m0 0 2 1-3 27-2 2 1-14 2-14-3-1z" fill="#FEF5F4"/>
<path transform="translate(1249,570)" d="m0 0 3 1-1 10-2 7h-1v-15z" fill="#28292C"/>
<path transform="translate(992,560)" d="m0 0h2l2 9-3 7h-1z" fill="#292A2D"/>
<path transform="translate(1697,540)" d="m0 0h9l6 3-1 3-3-3-12-1v2l-3 3h-2l1-4z" fill="#2C2C2F"/>
<path transform="translate(1234,537)" d="m0 0h9v11l-3-3z" fill="#292A2D"/>
<path transform="translate(976,5)" d="m0 0 8 1-2 2-6 1-2 11-2 2 1-9z" fill="#262628"/>
<path transform="translate(1717,584)" d="m0 0v3l-9 6h-14v-1l16-3 6-4z" fill="#2A2B2E"/>
<path transform="translate(1114,559)" d="m0 0h1l-1 19-2 8h-1v-10z" fill="#2D2E31"/>
<path transform="translate(1611,281)" d="m0 0h8v1h-7l-1 7-1 15-2 1 1-19z" fill="#FDE0E1"/>
<path transform="translate(1378,560)" d="m0 0 1 2h2l5 12 5 9v2h-2l-11-22z" fill="#29282B"/>
<path transform="translate(454,237)" d="m0 0 2 1-15 15-1-2 7-8z" fill="#FDE1E2"/>
<path transform="translate(1224,541)" d="m0 0h8l3 3-3 1h-12l1-3z" fill="#2A2A2D"/>
<path transform="translate(941,218)" d="m0 0h1v6l-2 3h-15v-2l8-1 6 1z" fill="#7B7A7B"/>
<path transform="translate(1541,558)" d="m0 0h2l-1 20-2-1-1-10 1-8z" fill="#2B2C2F"/>
<path transform="translate(1472,101)" d="m0 0 3 4 6 9-1 3-6-7-3-6z" fill="#808182"/>
<path transform="translate(1231,586)" d="m0 0m-2 1h2l-1 3-6 3h-12l1-2 13-2z" fill="#2E2F31"/>
<path transform="translate(1492,572)" d="m0 0h1l-1 14-2 4-1-5v-7z" fill="#2B2C2F"/>
<path transform="translate(1162,547)" d="m0 0h1l-1 8-2 1v-2l-4 2-1 2-2-1 3-6 5-2z" fill="#2C2D30"/>
<path transform="translate(1347,558)" d="m0 0 2 3-1 12h-3l1-14z" fill="#2C2D30"/>
<path transform="translate(946,540)" d="m0 0 2 1-1 12-3 1v-8z" fill="#2C2D30"/>
<path transform="translate(1691,534)" d="m0 0 5 1-3 2-7 4-4 6-2-2 3-5h2v-2z" fill="#2A2B2E"/>
<path transform="translate(1492,15)" d="m0 0h2v5l-5 3-1-2-3 3-2-1 7-7z" fill="#7F7C7E"/>
<path transform="translate(926,285)" d="m0 0 1 2-1 7-1 1 1 13-2-2-1-5v-9z" fill="#FDE1E1"/>
<path transform="translate(1621,572)" d="m0 0 2 1 3 8 2 4-5-2-2-3z" fill="#292A2D"/>
<path transform="translate(1289,571)" d="m0 0 3 1-3 6-2 10h-1v-9l2-7z" fill="#292A2C"/>
<path transform="translate(1691,550)" d="m0 0 4 2 5 3 9 4-3 1-12-5-3-3z" fill="#2A2A2D"/>
<path transform="translate(1703,358)" d="m0 0h1v16l-1 1-1 9-2 1 1-12 1-3z" fill="#FDF4F3"/>
<path transform="translate(1553,565)" d="m0 0h2v8l2 7h-3l-2-5v-7z" fill="#2B2C2F"/>
<path transform="translate(1082,4)" d="m0 0 4 1-3 3-5 18h-1l1-8 3-13z" fill="#FEF9F8"/>
<path transform="translate(1295,519)" d="m0 0 2 4-1 8-2 4-1-7z" fill="#2C2D2F"/>
<path transform="translate(74,321)" d="m0 0h10l-1 2 2 2h-11z" fill="#FBC9CB"/>
<path transform="translate(1508,159)" d="m0 0h1v18l-2-1-1-13z" fill="#7D7C7D"/>
<path transform="translate(1605,144)" d="m0 0 3 2v14l-2 1z" fill="#FEF0F0"/>
<path transform="translate(1987,89)" d="m0 0 16 1v2h-16z" fill="#FEE4E5"/>
<path transform="translate(1198,554)" d="m0 0 2 4-1 6h-2l-1 3-1-3 2-9z" fill="#2B2C2F"/>
<path transform="translate(1362,534)" d="m0 0 2 2v11l-3 2z" fill="#2B2C2F"/>
<path transform="translate(597,457)" d="m0 0h1v13l-3 5-1-2z" fill="#F2404A"/>
<path transform="translate(321,354)" d="m0 0h1l1 18-2-2-2-10z" fill="#FCD3D4"/>
<path transform="translate(1026,596)" d="m0 0 1 3-6 10h-2l2-7 3-4h2z" fill="#2D2E31"/>
<path transform="translate(1277,557)" d="m0 0h2v10l-2 2-1-3v-8z" fill="#2A2B2D"/>
<path transform="translate(991,544)" d="m0 0 2 1-7 7 2 3-4-2-3-1v-2l8-4z" fill="#2D2D30"/>
<path transform="translate(1163,519)" d="m0 0h2l-1 5-4 7-1-2 1-7z" fill="#2A2B2D"/>
<path transform="translate(1304,576)" d="m0 0 3 3 5 10-1 2-7-11z" fill="#2A2B2D"/>
<path transform="translate(1372,572)" d="m0 0 3 3 4 9-1 3-3-5-3-7z" fill="#28292C"/>
<path transform="translate(1719,567)" d="m0 0 3 2v12l-3 1z" fill="#2B2C2E"/>
<path transform="translate(1507,544)" d="m0 0 4 1-1 4-4 5v-7z" fill="#27272A"/>
<path transform="translate(744,538)" d="m0 0h12l-1 6-1-4h-11z" fill="#FEF9F8"/>
<path transform="translate(1836,209)" d="m0 0h1v16l-2 2-3-1h2z" fill="#FEF8F7"/>
<path transform="translate(140,143)" d="m0 0 3 1-8 7-5 6-1-3z" fill="#FEFEFD"/>
<path transform="translate(1364,134)" d="m0 0 3 2 3 1 1 4-3 1-1 2-2-5z" fill="#666264"/>
<path transform="translate(1217,92)" d="m0 0h16v5l-2 1v-4h-13z" fill="#222225"/>
<path transform="translate(1357,573)" d="m0 0h3l-2 12-2 2v-9z" fill="#28292C"/>
<path transform="translate(1172,556)" d="m0 0h1l1 11-3 2v-11z" fill="#28292C"/>
<path transform="translate(1307,559)" d="m0 0h3l1 5 2 1 1 4-2 2-5-10z" fill="#2C2C2F"/>
<path transform="translate(479,322)" d="m0 0 2 2 2 8v6l-1-4h-2l-1 2-1-2 1-2z" fill="#FABABD"/>
<path transform="translate(1397,104)" d="m0 0 3 1-5 1v2l6 1 2 2-9-2-4-1v-2z" fill="#FEF6F5"/>
<path transform="translate(1556,548)" d="m0 0h2l-1 8 4 2h-8l1-5z" fill="#2A2B2E"/>
<path transform="translate(1223,532)" d="m0 0 7 2v1l-12 1-2-2z" fill="#28292C"/>
<path transform="translate(1611,573)" d="m0 0h1l3 10-2 2-3-5z" fill="#2A2B2E"/>
<path transform="translate(1197,564)" d="m0 0h1v12h-2l-1-2v-6z" fill="#26272A"/>
<path transform="translate(1365,524)" d="m0 0h1v8l-2 4h-1v-9z" fill="#2A2A2D"/>
<path transform="translate(1518,141)" d="m0 0 5 2 2 2v2l2 2-4-1-6-4z" fill="#867F80"/>
<path transform="translate(1046,137)" d="m0 0h1l-1 9-2 5h-1v-9l3-1z" fill="#FEF5F5"/>
<path transform="translate(661,71)" d="m0 0 4 4h-5l-6 7-2-1 7-8z" fill="#FDDBDC"/>
<path transform="translate(1033,597)" d="m0 0 1 4-6 8-1-2z" fill="#292A2C"/>
<path transform="translate(957,553)" d="m0 0 12 1v1h-11l-1 6h-1v-7z" fill="#262629"/>
<path transform="translate(1057,542)" d="m0 0h2l-2 6-4 4 1-7z" fill="#2C2D30"/>
<path transform="translate(332,338)" d="m0 0 2 1-7 8-3 1 2-4z" fill="#F7868B"/>
<path transform="translate(1425,136)" d="m0 0 2 1v12l-2-1-1-5z" fill="#7C797A"/>
<path transform="translate(1432,31)" d="m0 0 3 4 3 7-1 5-2-4-3-8z" fill="#EEE3E3"/>
</svg>